<?xml version="1.0" encoding="utf-8"?>
<!-- Generator: Adobe Illustrator 21.1.0, SVG Export Plug-In . SVG Version: 6.00 Build 0)  -->
<svg version="1.1" id="Layer_1" xmlns="http://www.w3.org/2000/svg" xmlns:xlink="http://www.w3.org/1999/xlink" x="0px" y="0px"
	 viewBox="0 0 167 230.2" style="enable-background:new 0 0 167 230.2;" xml:space="preserve">
<style type="text/css">
	.st0{fill:#ED1C24;}
</style>
<g>
	<path d="M23.5,207.8l-1.9-11.4c-0.6-3.3-1.3-8.4-1.8-12h-0.2c-0.6,3.6-1.4,8.9-1.9,12l-2.1,11.4H23.5z M14.5,215.2L12,227.9H2.8
		l11.5-52.7h11.3l10.5,52.7h-9.3l-2.4-12.7H14.5z"/>
	<path d="M57.1,204.3c0-0.7,0-1.5-0.1-2.3c-0.4-2.6-1.8-5-4-5c-3.8,0-5.2,5.5-5.2,11.9c0,7.4,2,11.6,5.1,11.6c1.4,0,3-0.7,3.9-3.8
		c0.2-0.6,0.3-1.4,0.3-2.4V204.3z M66.6,173.8v43.1c0,3.4,0.2,7.6,0.3,10.9h-8.2l-0.5-4.4H58c-1.4,2.7-4.4,5-7.9,5
		c-7.9,0-11.7-8.7-11.7-19.6c0-13.3,5.8-19.8,12.1-19.8c3.3,0,5.4,1.6,6.5,4h0.2v-19.2H66.6z"/>
	<path d="M86.4,221.2c3.6,0,4.5-6.8,4.5-12.5c0-5.4-0.9-12.4-4.7-12.4c-4,0-4.9,7-4.9,12.4C81.4,215.2,82.5,221.2,86.4,221.2
		L86.4,221.2z M86.2,228.5c-8.7,0-14.2-7-14.2-19.6c0-13.7,7-19.8,14.4-19.8c8.6,0,14,7.4,14,19.6C100.5,224.4,92,228.5,86.2,228.5
		L86.2,228.5z"/>
	<path d="M115.3,214.2c0,0.9,0.2,1.8,0.4,2.4c0.9,3.2,2.6,4,3.9,4c3.7,0,5.1-4.7,5.1-12.1c0-6.8-1.6-11.4-5.2-11.4
		c-1.8,0-3.3,2-3.8,4.1c-0.2,0.7-0.4,1.7-0.4,2.4V214.2z M105.8,173.8h9.5v19.9h0.2c1.9-2.9,4.4-4.6,8-4.6c7.2,0,10.7,8.1,10.7,18.8
		c0,13.4-5.4,20.6-12.3,20.6c-3.3,0-5.5-1.5-7.5-5.2h-0.2l-0.5,4.6h-8.1c0.1-3.2,0.3-7.5,0.3-10.9V173.8z"/>
	<path d="M156.9,205.1c0-5.4-1.5-9.1-4.5-9.1c-3.4,0-4.9,5-5,9.1H156.9z M147.3,211.8c0.1,6.9,3.7,9.1,8.2,9.1
		c2.9,0,5.3-0.6,7.1-1.3l1.3,6.8c-2.5,1.1-6.4,1.8-10.1,1.8c-10.2,0-15.7-7-15.7-18.8c0-12.8,6.4-20.4,14.9-20.4
		c8.1,0,12.6,6.8,12.6,17.8c0,2.5-0.1,4-0.3,5.1L147.3,211.8z"/>
	<polygon class="st0" points="104.9,1.7 165.6,1.7 165.6,147 	"/>
	<polygon class="st0" points="62.2,1.7 1.4,1.7 1.4,147 	"/>
	<polygon class="st0" points="83.5,55.3 122.2,147 96.9,147 85.3,117.8 57,117.8 	"/>
</g>
</svg>
