<?xml version="1.0" encoding="utf-8"?>
<!-- Generator: Adobe Illustrator 21.1.0, SVG Export Plug-In . SVG Version: 6.00 Build 0)  -->
<svg version="1.1" id="Layer_1" xmlns="http://www.w3.org/2000/svg" xmlns:xlink="http://www.w3.org/1999/xlink" x="0px" y="0px"
	 viewBox="0 0 835 300" style="enable-background:new 0 0 835 300;" xml:space="preserve">
<style type="text/css">
	.st0{fill:#A5D21E;}
</style>
<g>
	<path d="M385.6,130.9c-0.6-1.6-1.1-3.1-1.7-4.6c-3.9-8.8-17-12.2-24.7-6.4c-4.5,3.4-4.7,10.3,0,13.5c3,2,6.4,3.4,9.8,4.7
		c5.5,2.2,11.2,3.8,16.6,6.1c19.6,8.6,21.2,27,16.1,40.9c-2.5,6.9-7.4,11.9-14.1,14.8c-14,6.1-27.9,5.8-41.1-2.2
		c-7.3-4.5-11.4-11.5-13.4-19.7c-0.1-0.6,0.4-1.8,0.9-2.1c5.9-2.7,11.9-5.2,18-7.8c0.7,1.8,1.2,3.5,1.9,5.2
		c3.9,8.5,17,11.9,24.7,6.4c4.4-3.2,5.1-9.6,1-13.3c-2-1.8-4.7-3.2-7.2-4.2c-5.6-2.2-11.5-3.6-16.9-6c-4.4-2-8.9-4.4-12.4-7.6
		c-9.2-8.2-10.8-19-8-30.5c2.8-11.7,11.1-18.4,22.3-21.2c12.5-3,24.7-2.1,35.5,5.9c6.3,4.6,10,11.1,11.9,18.5
		c0.2,0.6-0.3,1.9-0.9,2.1C397.9,126,391.8,128.4,385.6,130.9z"/>
	<path d="M493.3,171.5c-19.2,0-37.9,0-57,0c0.8,4.2,2.8,7.4,5.7,9.9c6.2,5.2,13.4,5.9,21,4.7c5.9-0.9,11.1-3.4,15.9-7.4
		c2.9,5.7,5.7,11.2,8.6,16.9c-4.7,4-10,6.8-16,8.4c-11.9,3.1-23.7,3.1-34.9-2.2c-14.1-6.7-20.7-18.6-21.5-33.7
		c-0.7-12.8,2.7-24.3,12.3-33.3c8-7.5,17.8-10.4,28.7-10c19.9,0.7,33.1,12.2,36.2,31.9C493,161.4,493,166.3,493.3,171.5z
		 M436.1,156.4c11.5,0,22.9,0,34.2,0c-0.1-7.4-6.1-13.4-14-14.1C445.8,141.2,438.1,146.5,436.1,156.4z"/>
	<path d="M804,178.7c2.9,5.7,5.7,11.2,8.6,17c-1.4,1-2.7,2.2-4.2,3c-15.2,8.8-31.1,9.8-47.1,2.8c-8.3-3.6-14.1-10-17.6-18.3
		c-5-12-5-24.2,0.1-36.2c6.2-14.5,20.4-22.9,36.6-22.4c9.2,0.3,17.6,2.5,24.7,8.6c8.4,7.2,11.9,16.8,12.8,27.6c0.3,3.5,0,7,0,10.8
		c-18.9,0-37.6,0-56.6,0c1.8,7.2,6.1,11.7,12.7,13.7c10,3,19.2,1,27.7-4.9C802.4,179.9,803.1,179.4,804,178.7z M761.3,156.4
		c11.4,0,22.7,0,34,0c0.4-7.1-6-13.5-14-14.2C770.7,141.3,762.4,147.1,761.3,156.4z"/>
	<path d="M570.9,204.1c-7.1,0-13.7,0-20.6,0c0-3.2,0-6.2,0-9.8c-0.9,1.1-1.5,1.7-2,2.2c-9.2,10.7-28,12.5-39.1,3.8
		c-7.4-5.8-9.9-13.7-8.6-22.7c1.3-9.2,6.8-15.5,15.4-18.3c5.4-1.7,11.2-2.2,16.9-2.9c4.2-0.6,8.5-0.6,12.7-1.2
		c1.6-0.2,3.7-0.9,4.4-2c1.1-1.9,0.6-4.4-1.1-6c-1.3-1.3-3.1-2.4-4.8-2.9c-6.4-1.8-12.7-1.3-18.8,1.2c-3.5,1.5-6,4-7.8,7.7
		c-5.1-3.7-10.1-7.2-15.2-10.8c2.6-6.1,7-10.3,12.7-13.1c9-4.4,18.5-5,28.3-4.2c2.4,0.2,4.8,0.7,7.1,1.2c11.5,2.8,18.5,10.7,20,22.5
		c0.3,2.7,0.5,5.5,0.5,8.2c0,14.7,0,29.5,0,44.2C570.9,202.1,570.9,203,570.9,204.1z M550.1,169.7c-5.2,0.6-10.4,1.1-15.5,1.9
		c-2.8,0.4-5.8,1-8.4,2c-3.1,1.3-4.6,4-4.4,7.4c0.2,3.4,2.2,5.8,5.3,6.5c2.9,0.7,6.1,1,9.1,0.6C545.5,187,551.6,178.9,550.1,169.7z"
		/>
	<path d="M594.2,143.8c-4.8,0-9.3,0-14,0c0-5.8,0-11.4,0-17.3c4.5,0,9,0,13.9,0c0-7.1,0-13.8,0-20.6c7.1,0,13.8,0,20.7,0
		c0,6.8,0,13.4,0,20.4c6.5,0,12.9,0,19.5,0c0,6,0,11.6,0,17.6c-6.4,0-12.8,0-19.4,0c0,1.5,0,2.7,0,3.9c0,9.8,0,19.7,0,29.5
		c0,4.6,1.9,6.8,6.6,6.9c2.9,0.1,5.8-0.4,8.7-0.6c1.1-0.1,2.3-0.3,3.7-0.5c0,6.3,0,12.4,0,18.5c0,0.4-0.6,1.1-1,1.1
		c-7.8,1.7-15.5,3.1-23.5,1.3c-9.1-2.1-14.5-8.7-14.8-19.1c-0.4-12.4-0.2-24.8-0.3-37.2C594.2,146.5,594.2,145.3,594.2,143.8z"/>
	<path d="M654.4,143.8c-4.9,0-9.3,0-14,0c0-5.8,0-11.5,0-17.4c4.7,0,9.1,0,13.9,0c0-6.9,0-13.6,0-20.5c6.9,0,13.6,0,20.6,0
		c0,6.8,0,13.5,0,20.4c6.6,0,13,0,19.5,0c0,5.9,0,11.5,0,17.4c-6.3,0-12.7,0-19.3,0c-0.1,1-0.1,1.8-0.1,2.6c0,10,0,20,0,30
		c0,6,2.2,8.2,8.2,8c3.6-0.1,7.1-0.7,10.9-1c0,6.1,0,12.2,0,18.2c0,0.4-0.6,1.2-1.1,1.3c-7.5,1.7-15.1,3-22.7,1.4
		c-9.5-1.9-15.2-8.9-15.5-19.9c-0.3-12.4-0.1-24.8-0.2-37.2C654.4,146.1,654.4,145.1,654.4,143.8z"/>
	<path d="M707.5,95.7c6.8,0,13.5,0,20.5,0c0,36,0,72,0,108.2c-6.8,0-13.6,0-20.5,0C707.5,167.8,707.5,131.8,707.5,95.7z"/>
	<path class="st0" d="M89.5,141.8c0,2.9-0.1,5.8,0,8.7c0.1,1.8-0.7,2.7-2.4,2.7c-5.1,0-10.2,0-15.2,0c-0.7,0-1.6-0.4-1.8-0.9
		c-0.2-0.5,0.2-1.4,0.7-1.9c5.6-6.1,11.2-12.1,16.8-18.1c0.4-0.4,1.1-0.6,1.7-0.9c0.2,0.7,0.6,1.3,0.7,2c0.1,2.8,0,5.7,0,8.5
		C89.8,141.8,89.6,141.8,89.5,141.8z"/>
	<path class="st0" d="M259.9,131.4c0,3,0,6.1,0,9.1c0,3.2-0.1,6.5-0.2,9.7c0,2.1-0.9,3-3,3c-4.8-0.1-9.6,0-14.5-0.1
		c-0.8,0-1.6-0.6-2.4-0.9c0.3-0.7,0.6-1.5,1.1-2.1c5.4-5.9,10.9-11.8,16.4-17.7c0.5-0.5,1.1-0.9,1.7-1.3
		C259.3,131.2,259.6,131.3,259.9,131.4z"/>
	<path class="st0" d="M288.9,277.6c-85.1,0-170,0-255.2,0c0-85,0-170,0-255.1c85,0,170,0,255.2,0
		C288.9,107.4,288.9,192.4,288.9,277.6z M207.4,141.8c2-6.1,4-11.9,6-17.8c0.9-2.8,0.5-3.6-2.4-4.2c-10.4-2.2-20.8-2.5-31.1,1
		c-14.4,4.8-25,13.8-29.7,28.6c-4.6,14.8,2.6,28.1,17.3,32.2c11.3,3.1,22.3,0.8,33-3.2c0.8-0.3,1.6-1.4,1.9-2.3
		c1.4-4,2.7-8,3.9-12.1c0.8-2.5,0.3-3-2.4-3.1c-3.3,0-6.7,0-10,0c-4.3,0-8.5,0-12.8,0c4.3,1.6,8.6,2.9,12.9,3.9
		c1.7,0.4,2.2,1.2,1.8,2.8c-0.8,3.2-1.5,6.5-2.5,9.7c-0.3,1-1.5,2.3-2.5,2.6c-6.8,1.5-13.6,1.2-19.9-2.2
		c-10-5.4-14.2-16.5-10.7-28.6c4.3-15.1,18.9-30.3,41.7-27.8c5.5,0.6,5.6,0.8,5.5,6.2C207.3,132.1,207.4,136.8,207.4,141.8z
		 M33.8,182.2c9.9,0,19.1,0,28.4,0c-3.9-1.1-7.8-2-11.6-2.9c-2.2-0.5-2.5-1.4-1.1-3.2c5-6.2,10-12.4,15.3-18.5c1-1.1,2.8-2,4.3-2
		c5.8-0.1,11.6,0.1,17.5,0.2c2.1,0,3,1,2.8,3.1c-0.3,5.6-0.5,11.1-0.7,16.7c-0.1,1.8-0.9,2.6-2.6,3.1c-3.1,0.9-6.2,2-9.3,3
		c0,0.1,0.1,0.2,0.1,0.4c9.8,0,19.5,0,29.3,0c-2.1-1.3-4.2-2.3-6.4-3.2c-1.7-0.7-2.4-1.9-2.3-3.7c0.2-13.3,0.4-26.6,0.5-40
		c0.1-6,0-12.1,0-18.6c-0.9,0.8-1.5,1.3-2,1.8c-14.4,15.6-28.6,31.3-43.2,46.8C47.1,171.3,42.7,178.8,33.8,182.2z M232.3,182.3
		c0-0.1,0-0.2,0-0.3c-3.9-0.9-7.7-1.7-11.6-2.6c-2.3-0.6-2.7-1.5-1.2-3.3c5-6.1,10-12.3,15.1-18.3c1-1.1,2.8-2.1,4.3-2.1
		c5.9-0.1,11.8,0.1,17.7,0.2c2.1,0,2.9,1.1,2.8,3.2c-0.3,5.5-0.6,11-0.7,16.5c-0.1,1.9-0.9,2.8-2.7,3.3c-3.1,0.9-6.1,2-9.1,3
		c0,0.1,0.1,0.2,0.1,0.3c9.8,0,19.5,0,30,0c-2.6-1.2-4.6-2.1-6.6-2.9c-2.1-0.8-2.9-2.1-2.9-4.4c0.1-5,0.1-10,0.2-15
		c0.2-12,0.3-24,0.5-36c0-2.3,0-4.5,0-7.4c-1,0.9-1.4,1.2-1.8,1.6c-10.4,11.3-20.5,22.7-31.2,33.7c-10,10.3-18.3,22.3-30.1,30.3
		C213.9,182.3,223.1,182.3,232.3,182.3z M136.5,182.3c0-0.2,0-0.3,0-0.5c-2.3-0.8-4.5-1.8-6.8-2.4c-2.2-0.6-2.7-1.8-2.2-3.9
		c3.9-16.3,7.9-32.6,11.7-49c0.6-2.7,2-4.2,4.6-4.9c2.1-0.6,4.1-1.3,6.1-1.9c0-0.1-0.1-0.2-0.1-0.4c-9.2,0-18.5,0-27.7,0
		c2.1,1.1,4.2,1.9,6.4,2.6c2,0.6,2.7,1.7,2.2,3.9c-4.1,16.5-8.1,32.9-12,49.4c-0.5,2.3-1.7,3.7-3.9,4.4c-2.1,0.7-4.2,1.5-6.3,2.3
		c0,0.1,0.1,0.2,0.1,0.4C118,182.3,127.2,182.3,136.5,182.3z"/>
</g>
</svg>
