<?xml version="1.0" encoding="utf-8"?>
<!-- Generator: Adobe Illustrator 21.1.0, SVG Export Plug-In . SVG Version: 6.00 Build 0)  -->
<svg version="1.1" id="Layer_1" xmlns="http://www.w3.org/2000/svg" xmlns:xlink="http://www.w3.org/1999/xlink" x="0px" y="0px"
	 viewBox="0 0 200 200" style="enable-background:new 0 0 200 200;" xml:space="preserve">
<style type="text/css">
	.st0{fill:#FFFFFF;}
</style>
<g transform="translate(0,-952.36218)">
	<path class="st0" d="M89.8,983.9c-0.8,0-1.4,1-1.4,1.8v39.1l-51.8,51.8h-5c-1.3,0-2.2,1.8-1.4,2.9l23.3,32
		c-4.1-0.5-7.5-2.2-9.2-4.4c-0.5-0.9-1.9-1.2-2.7-0.5c-0.8,0.6-0.9,2-0.1,2.7c5.4,7,19.3,9.3,30.1-0.3c4,4.5,8.1,8.7,12.7,10.1
		c2.6,0.8,5.4,0.5,7.9-1.1c2-1.4,3.8-3.6,5.5-6.7c5.3,5.3,10,9,15.1,9.5c2.8,0.3,5.7-0.5,8.3-2.4c2.2-1.6,4.2-4,6.2-7.1
		c1.5,1.3,3.3,2.2,5.4,2.9c3,1,6.5,1.5,10,1.4c3.5-0.2,6.9-0.9,9.8-2.5c2.9-1.6,5.2-4,6-7.4c0.3-1.1-0.6-2.2-1.7-2.3
		c-0.8,0-1.6,0.6-1.8,1.4c-0.6,2.2-2.1,3.8-4.3,5c-1.5,0.8-3.4,1.4-5.4,1.7l24.4-32c0.6-0.9,0.3-2.3-0.7-2.7
		c3.7-29.8-7.1-50.1-21.9-64.2c-15.1-14.3-34.2-22.4-46.6-28.4c-0.4-0.2-0.7-0.3-1-0.3C96.3,983.9,92.7,983.9,89.8,983.9L89.8,983.9
		z M92,987.5h5.9v89.1H92V987.5z M105.2,990.3c12,5.8,27.3,13.2,39.6,24.8c14.2,13.5,24.4,32.5,20.7,61.4H108
		c13.3-20.1,15.9-37.4,13.1-52.3C118.6,1011.3,112,1000.3,105.2,990.3L105.2,990.3z M101.5,991.4c7,10,13.6,21,16,33.6
		c2.8,14.5,0.2,31.1-13.8,51.6h-2.1V991.4z M88.3,1029.9v46.7H41.7L88.3,1029.9z M35.2,1080.2h129.5l-24.1,31.6
		c-2.4-0.1-4.7-0.5-6.7-1.1c-2.6-0.9-4.5-2.2-5.4-3.5c-0.7-1-2.4-0.9-3.1,0.1c-2.3,4-4.5,6.6-6.5,8.2c-2,1.5-3.8,2-5.8,1.8
		c-3.9-0.4-8.9-4.2-14.7-10.3c-0.8-0.8-2.5-0.6-2.9,0.5c-1.8,4.1-3.7,6.4-5.3,7.5c-1.6,1.1-3.1,1.2-4.9,0.7
		c-3.5-1.1-8-5.5-12.3-10.4c-0.7-0.7-2-0.8-2.7-0.1c-3.9,4-8.2,5.8-12.3,6.3L35.2,1080.2z"/>
	<path class="st0" d="M128.2,1010.5c-1,0.1-1.8,0.9-1.7,1.9c0,0.6,0.3,1.1,0.8,1.4c15.8,11.7,25.4,23.2,27.7,40.5c0.1,1,1,1.7,2,1.6
		c1-0.1,1.7-1,1.6-2c0,0,0-0.1,0-0.1c-2.4-18.4-12.9-31-29.1-43C129,1010.6,128.6,1010.4,128.2,1010.5z"/>
	<path class="st0" d="M157.3,1061.6c-1,0-1.8,0.8-1.9,1.8l-0.2,4.4c-0.1,1,0.7,1.9,1.7,1.9s1.9-0.7,1.9-1.7c0,0,0-0.1,0-0.1l0.2-4.4
		C159.1,1062.5,158.4,1061.6,157.3,1061.6C157.4,1061.6,157.3,1061.6,157.3,1061.6L157.3,1061.6z"/>
</g>
</svg>
