<?xml version="1.0" encoding="utf-8"?>
<!-- Generator: Adobe Illustrator 21.1.0, SVG Export Plug-In . SVG Version: 6.00 Build 0)  -->
<svg version="1.1" id="Layer_1" xmlns="http://www.w3.org/2000/svg" xmlns:xlink="http://www.w3.org/1999/xlink" x="0px" y="0px"
	 viewBox="0 0 65 93" style="enable-background:new 0 0 65 93;" xml:space="preserve">
<style type="text/css">
	.st0{fill:#FF4374;}
	.st1{fill:#FFFFFF;}
	.st2{fill:none;}
	.st3{fill:#FF8EAC;}
	.st4{fill:#1E252B;}
	.st5{fill:#221F1F;}
	.st6{fill:#DBF0F8;}
</style>
<g>
	<path class="st0" d="M27,37.2l-4.3-4.3l0,0c0,0-0.8-0.9-1.9-1l0,0c-0.5,0-1.1,0.3-1.6,0.6c-0.1,0.3-0.4,0.4-0.6,0.6l0,0l0,0
		c-0.5,0.6-0.8,1.1-0.8,1.8c0,1,1,1.9,1,1.9h0.1l8.3,8.3v-8H27z"/>
	<polygon class="st0" points="37.7,50.9 37.7,55.6 49.3,67.4 53.3,63.3 39.3,49.3 	"/>
	
		<rect x="52.2" y="66.1" transform="matrix(0.7071 -0.7071 0.7071 0.7071 -32.6312 59.1002)" class="st0" width="5.7" height="5.7"/>
	<path class="st1" d="M17,31.4c0-0.1,0.1-0.1,0.1-0.3l0,0l0,0c0.1-0.1,0.3-0.3,0.4-0.4c1-1.1,0.9-2.5-0.3-4c-4-5.1-8.1-5.8-10.6-5.7
		c1.8,1.6,2.9,3.5,3.5,6.3c0.4,1.8,1.6,4,3.4,4.7C14.9,32.6,15.9,32.3,17,31.4z"/>
	<line class="st2" x1="17.3" y1="31.2" x2="17.3" y2="31.2"/>
	<path class="st3" d="M37.7,40.7l3.5,3.5l6.5-6.5c0.1-0.1,0.1-0.1,0.3-0.3c0.3-0.3,0.5-0.8,0.6-1.3c0.3-1.1-0.5-2.2-0.8-2.5l0,0l0,0
		c-0.1-0.1-0.1-0.1-0.3-0.3c-0.5-0.4-1.5-1-2.8-0.5h-0.1c-0.1,0-0.1,0.1-0.3,0.1h-0.1c-0.3,0.1-0.5,0.4-0.8,0.5l-3.7,3.7l-2,2v1.4
		H37.7z"/>
	<polygon class="st4" points="41.7,32 41.7,32 41.7,32 37.7,36 37.7,36 	"/>
	<path class="st4" d="M47.3,33.3c-1-0.9-2-0.8-2.8-0.5C45.8,32.3,46.8,33,47.3,33.3z"/>
	<path class="st4" d="M47.5,37.8c0,0,0.1-0.1,0.3-0.3C47.7,37.5,47.5,37.6,47.5,37.8L47.5,37.8z"/>
	<path class="st4" d="M47.5,33.6L47.5,33.6L47.5,33.6L47.5,33.6z"/>
	<path class="st4" d="M37.7,39.3l2-2L37.7,39.3z"/>
	<path class="st4" d="M48.4,36.3c0-0.3,0.1-0.4,0.1-0.6c0-0.6-0.3-1.3-0.9-1.9C47.9,34,48.7,35,48.4,36.3z"/>
	<path class="st4" d="M44.1,33c0.1,0,0.1-0.1,0.3-0.1C44.2,33,44.2,33,44.1,33z"/>
	<path class="st4" d="M43.4,33.6L43.4,33.6c0.3-0.3,0.5-0.4,0.8-0.5C43.7,33.2,43.5,33.5,43.4,33.6z"/>
	<polygon class="st3" points="27.3,49.7 6.7,70.3 10.8,74.5 27.3,57.9 	"/>
	<polygon class="st3" points="37.7,47.6 39.4,45.7 37.7,44 	"/>
	<polygon class="st4" points="10.9,77.7 27.3,61.3 27.3,61.3 	"/>
	<polygon class="st4" points="27.3,49.7 27.3,49.7 6.5,70.3 10.7,74.5 10.8,74.5 6.7,70.3 	"/>
	<polygon class="st1" points="53.2,31.8 53.2,31.8 56.4,23.5 48.5,31.3 50.1,32.8 	"/>
	<polygon class="st4" points="54.9,33.7 55,33.7 55.2,33.2 55,33.7 	"/>
	<polygon class="st4" points="62.4,14.1 62.6,14 46.3,30.3 46.3,30.3 	"/>
	<polygon class="st4" points="53.2,31.8 56.8,23.1 56.4,23.5 	"/>
	<path class="st4" d="M48.5,31.3c0.3,0.1,0.4,0.4,0.6,0.5c0.4,0.4,0.6,0.6,0.8,1l3.2-1l-3,1L48.5,31.3L48.5,31.3z"/>
	<path class="st5" d="M49.2,39.4c0.3-0.3,1.6-1.6,1.6-3.8c0-0.1,0-0.4,0-0.5l4.2-1.4h0.1l0.3-0.5l8-19.7l-0.6,0.6L46.3,30.3l0,0
		c-0.3,0-0.5,0-0.8,0c-2.2,0-3.5,1.5-3.8,1.6l0,0l-4,4l0,0V18.9L32.5,8.6l-5.2,10.4v14.9l-2.7-2.7c-0.3-0.3-1.5-1.6-3.5-1.8
		c-0.1,0-0.3,0-0.4,0c0.1-1.5-0.5-3-1.4-4.2c-7.2-9.1-15.2-6.1-15.6-5.9l-1.9,0.8l1.6,1.3c2.7,1.9,4,3.4,4.6,6.6
		c0.5,2.5,2.3,5.4,4.9,6.5c0.5,0.1,1.1,0.4,1.8,0.4c0.3,0,0.5,0,0.8-0.1c0,0.1,0,0.3,0,0.5c0.1,1.9,1.4,3.3,1.8,3.5l8.9,8.9
		L3.3,70.3l7.5,7.5l0,0l16.4-16.4l0,0v8.9v2.3v3.7v2.3v6.1h10.4v-6.1v-2.3v-3.7v-2.3V59l17.3,17.3l7.3-7.3L40.9,47.5L49.2,39.4z
		 M51.1,69l4-4l4,4l-4,4L51.1,69z M49.3,67.4L37.5,55.6v-4.7l1.6-1.6l14.2,14L49.3,67.4z M35.3,82.2h-5.7v-3.7h5.7V82.2z M35.3,76.1
		h-5.7v-3.7h5.7V76.1z M29.6,70.2V22.1l0.8,0.8l2-2l2,2l0.9-0.9v48.2H29.6z M18.8,36.9c0,0-0.9-0.8-1-1.9c0-0.6,0.3-1.1,0.8-1.8l0,0
		l0,0c0.3-0.3,0.4-0.4,0.6-0.6c0.5-0.5,1.1-0.6,1.6-0.6l0,0c1,0,1.9,1,1.9,1l0,0l4.3,4.3v8L18.8,36.9L18.8,36.9z M10.5,27.5
		c-0.5-2.9-1.6-4.7-3.5-6.3c2.5-0.1,6.6,0.6,10.6,5.7c1.1,1.5,1.3,2.8,0.3,4c-0.1,0.1-0.3,0.3-0.4,0.4c-0.1,0.1-0.1,0.1-0.1,0.3
		c-1.1,0.9-2.3,1.1-3.3,0.8C12.1,31.6,10.7,29.3,10.5,27.5z M10.8,74.5L10.8,74.5l-4.3-4.2l20.6-20.6l0,0v8.2L10.8,74.5z M34.5,19.6
		l-2-2l-2,2l-0.6-0.6l2.5-5.2l2.5,5.2L34.5,19.6z M48.5,31.3l7.8-7.8l0.3-0.3l-3.4,8.6l0,0l0,0l-3.2,1c-0.3-0.4-0.5-0.6-0.8-1
		C48.9,31.7,48.7,31.6,48.5,31.3L48.5,31.3z M39.4,45.7l-1.8,1.8V44L39.4,45.7z M43.4,33.6L43.4,33.6c0.1-0.1,0.4-0.4,0.8-0.5h0.1
		c0.1,0,0.1-0.1,0.3-0.1h0.1c0.8-0.3,1.6-0.4,2.8,0.5c0.1,0.1,0.1,0.1,0.3,0.3l0,0l0,0l0,0c0.6,0.6,0.9,1.3,0.9,1.9
		c0,0.3,0,0.4-0.1,0.6c-0.1,0.5-0.5,1-0.6,1.3c-0.1,0.1-0.1,0.3-0.3,0.3l0,0l-6.5,6.5l-3.5-3.5v-1.4l0,0l2-2L43.4,33.6z"/>
	<polygon class="st0" points="35.3,22 34.4,22.8 32.5,20.8 30.4,22.8 29.6,22 29.6,70.2 35.3,70.2 	"/>
	<polygon class="st1" points="29.8,18.9 30.4,19.6 32.5,17.5 34.5,19.6 35,18.9 32.5,13.7 	"/>
	<rect x="29.6" y="72.4" class="st6" width="5.7" height="3.7"/>
	<rect x="29.6" y="78.4" class="st0" width="5.7" height="3.7"/>
</g>
</svg>
