<?xml version="1.0" encoding="utf-8"?>
<!-- Generator: Adobe Illustrator 21.1.0, SVG Export Plug-In . SVG Version: 6.00 Build 0)  -->
<svg version="1.1" id="Layer_1" xmlns="http://www.w3.org/2000/svg" xmlns:xlink="http://www.w3.org/1999/xlink" x="0px" y="0px"
	 viewBox="0 0 67 93" style="enable-background:new 0 0 67 93;" xml:space="preserve">
<style type="text/css">
	.st0{fill:#FFFFFF;}
	.st1{fill:#B1E53E;}
	.st2{fill:#1E252B;}
</style>
<g>
	<rect x="28.3" y="67.4" class="st0" width="10.4" height="4.2"/>
	<polygon class="st0" points="26.4,73.5 9.9,73.5 9.9,74.7 57.1,74.7 57.1,73.5 40.5,73.5 	"/>
	<path class="st0" d="M64.7,65.5V18.3H2.3v47.2h24.2l0,0h14.1l0,0H64.7z M5,62.7V21.1h57v41.7L5,62.7L5,62.7z"/>
	<path class="st1" d="M6.9,60.9h53.3v-38H6.9V60.9z M41.8,45.5L53.1,41l-11.3-4.4v-3.3l14.6,6.5v2.5l-14.6,6.5
		C41.8,48.8,41.8,45.5,41.8,45.5z M37.3,27.3H40l-10.4,27h-2.7L37.3,27.3z M11.1,39.9l14-6.5v3.4l-10.7,4.4l10.7,4.3v3.4l-14-6.5
		V39.9z"/>
	<path class="st2" d="M66.6,67.4V16.5H0.4v50.9h26v4.2H8.1v4.9H59v-4.9H40.5v-4.2C40.5,67.4,66.6,67.4,66.6,67.4z M57.1,74.7H9.9
		v-1.2h16.5h14.1H57L57.1,74.7L57.1,74.7z M28.3,71.6v-4.2h10.4v4.2H28.3z M26.4,65.5L26.4,65.5H2.3V18.3h62.5v47.2H40.5l0,0H26.4z"
		/>
	<path class="st2" d="M62,21.1H5v41.7h57V21.1z M60.1,60.9H6.9v-38h53.3v38H60.1z"/>
	<polygon class="st2" points="25.1,45.5 14.4,41.2 25.1,36.7 25.1,33.4 11.1,39.9 11.1,42.4 25.1,48.8 	"/>
	<polygon class="st2" points="40,27.3 37.3,27.3 26.9,54.3 29.6,54.3 	"/>
	<polygon class="st2" points="56.4,39.8 41.8,33.4 41.8,36.6 53.1,41.1 41.8,45.5 41.8,48.8 56.4,42.3 	"/>
</g>
</svg>
