<?xml version="1.0" encoding="utf-8"?>
<!-- Generator: Adobe Illustrator 21.1.0, SVG Export Plug-In . SVG Version: 6.00 Build 0)  -->
<svg version="1.1" id="Layer_1" xmlns="http://www.w3.org/2000/svg" xmlns:xlink="http://www.w3.org/1999/xlink" x="0px" y="0px"
	 viewBox="0 0 97 160" style="enable-background:new 0 0 97 160;" xml:space="preserve">
<style type="text/css">
	.st0{fill:#5B49C4;}
</style>
<g>
	<path class="st0" d="M73.2,128.8L73.2,128.8L73.2,128.8L73.2,128.8c-0.2,0.3-10.3,17.4-27.1,26.2l-0.1-0.1
		c-9.3-5.6-15.5-12.1-19.1-16.7c-4.1-5.2-5.8-9.1-5.8-9.2l-4,1.7c0.3,0.7,7.5,16.9,27.9,28.6l1,0.6l1-0.5
		c18.6-9.2,29.4-27.7,29.9-28.5L73.2,128.8L73.2,128.8z"/>
	<path class="st0" d="M43.3,102.9c0-1.6-0.2-3.2-0.6-4.7c-2.1-7.6-9-13.1-17.2-13.1c-9.8,0-17.8,8-17.8,17.8c0,3.3,0.9,6.4,2.5,9.1
		c3.1,5.2,8.8,8.7,15.3,8.7C35.3,120.7,43.3,112.7,43.3,102.9z M12.4,102.9c0-7.2,5.8-13,13-13s13,5.8,13,13s-5.8,13-13,13
		C18.3,115.9,12.4,110.1,12.4,102.9z"/>
	<path class="st0" d="M96.5,55.6l-0.8-4.3l-3,3.2c-3.9,4.2-8.9,4.5-11.8,4.2c2.3-7.8,1.7-17.3-1.7-28.3c-2.8-8.9-6.4-15.5-6.5-15.7
		l-2.5-4.5l-1.5,4.9C67,21,64.7,26.5,63,30.3C57.1,8.4,42.8,2.9,42.1,2.6L35,0l4.6,6c7.6,9.8-0.8,25-4.4,30.6
		c-5.8-7.5-3.4-16.2-3.3-16.6l1.8-6.3l-5.2,3.9C19.6,24.3,14.9,34.8,14.9,48c0,3.9,0.4,7.5,1,10.5c-5.3-6.9-4.5-14.1-4.5-14.5
		l-3.9-1.5c-8.9,12.9-9,32.3-4.5,44.9l4.1-1.5c-3.4-9.4-4-23,0.3-34c0.1-0.3,0.2-0.5,0.3-0.8c0.8,3.3,2.3,7.2,5.5,10.9
		c0.8,1.1,3.9,5,9.3,7.8l1.5,1.1l-0.1-0.4c2.4,1.1,5.3,1.9,8.5,2.1l0,0l0,0l0,0l0,0l0.3-4.3c-4.6-0.3-8.3-2.1-10.9-4
		c-0.7-2.2-7.3-24.5,4.8-38.8c0.2-0.2,0.3-0.4,0.5-0.6c0,4.3,1.1,10.2,5.7,15.4c0.7,0.8,5.1,6,11.8,8.8l0,0l1.7-4
		c-3.4-1.4-6.1-3.5-7.9-5.2c1.5-2.2,4.1-6.4,6.1-11.6c2.3-5.9,3.1-11.3,2.4-16c-0.1-0.6-0.2-1.2-0.3-1.8c4.8,4.1,11.1,12,13.6,26.8
		l1,5.6l0.1,0.6l2.4-4.4c0.4-0.8,0.8-1.5,1.2-2.1l0,0c1.1-2.2,3.9-7.8,6.5-14.9c0.1-0.2,0.1-0.3,0.2-0.5c3.2,7.1,8.3,20.9,6.2,33
		c-0.2,0.9-2.6,10.3-7.9,16.3l0,0l3.3,2.9c2.9-3.3,4.9-7.4,6.4-10.8c2.6,0.4,7.8,0.7,12.7-2.2c0.2-0.1,0.4-0.2,0.6-0.4
		c0.2,5.7-0.6,16.4-8,24.8c0,0,0,0-0.1,0.1l3.2,2.9C99.8,74.6,96.7,56.4,96.5,55.6z"/>
	<path class="st0" d="M36.5,102.9c0-6.1-5-11-11-11c-6.1,0-11,5-11,11c0,6.1,5,11,11,11S36.5,109,36.5,102.9z M16.4,102.9
		c0-5,4.1-9.1,9.1-9.1c0.2,0,0.4,0,0.5,0l-9.6,9.6C16.4,103.3,16.4,103.1,16.4,102.9z M17.5,107.3c-0.3-0.5-0.5-1-0.7-1.5l11.5-11.5
		c0.5,0.2,1,0.4,1.5,0.7L17.5,107.3z M33.3,98.4c0.8,1.3,1.2,2.8,1.2,4.5c0,5-4.1,9.1-9.1,9.1c-1.6,0-3.2-0.4-4.5-1.2L33.3,98.4z"/>
	<path class="st0" d="M66.8,85.1c-9.8,0-17.8,8-17.8,17.8c0,3.3,0.9,6.4,2.5,9.1c3.1,5.2,8.8,8.7,15.3,8.7c9.8,0,17.8-8,17.8-17.8
		c0-1.6-0.2-3.2-0.6-4.7C81.9,90.6,75,85.1,66.8,85.1z M66.8,115.9c-7.2,0-13-5.8-13-13s5.8-13,13-13s13,5.8,13,13
		S74,115.9,66.8,115.9z"/>
	<path class="st0" d="M66.8,91.9c-6.1,0-11,5-11,11c0,6.1,5,11,11,11c6.1,0,11-5,11-11C77.8,96.8,72.9,91.9,66.8,91.9z M57.8,102.9
		c0-5,4.1-9.1,9.1-9.1c0.2,0,0.4,0,0.5,0l-9.6,9.6C57.8,103.3,57.8,103.1,57.8,102.9z M58.9,107.3c-0.3-0.5-0.5-1-0.7-1.5l11.5-11.5
		c0.5,0.2,1,0.4,1.5,0.7L58.9,107.3z M75.9,102.9c0,5-4.1,9.1-9.1,9.1c-1.6,0-3.2-0.4-4.5-1.2l12.3-12.3
		C75.4,99.7,75.9,101.3,75.9,102.9z"/>
</g>
</svg>
