<?xml version="1.0" encoding="utf-8"?>
<!-- Generator: Adobe Illustrator 21.1.0, SVG Export Plug-In . SVG Version: 6.00 Build 0)  -->
<svg version="1.1" id="Layer_1" xmlns="http://www.w3.org/2000/svg" xmlns:xlink="http://www.w3.org/1999/xlink" x="0px" y="0px"
	 viewBox="0 0 37 60" style="enable-background:new 0 0 37 60;" xml:space="preserve">
<style type="text/css">
	.st0{fill:#27A8E0;}
	.st1{fill:#FFFFFF;}
	.st2{fill:#513794;}
</style>
<g>
	<path class="st0" d="M24.5,13.8L24.5,13.8C24.5,13.9,24.5,13.9,24.5,13.8C24.5,13.9,24.5,13.9,24.5,13.8z"/>
	<path class="st0" d="M12.4,27.2L12.4,27.2L12.4,27.2z"/>
	<path class="st0" d="M27.8,48.3L27.8,48.3L27.8,48.3z"/>
	<path class="st1" d="M9.8,42c1.9,0,3.4-1.5,3.4-3.4c0-0.6-0.2-1.2-0.5-1.7l-4.6,4.6C8.7,41.8,9.2,42,9.8,42z"/>
	<path class="st1" d="M9.8,35.2c-1.9,0-3.4,1.5-3.4,3.4c0,0.1,0,0.1,0,0.2l3.6-3.6C10,35.2,9.9,35.2,9.8,35.2z"/>
	<path class="st1" d="M10.9,35.4l-4.3,4.3c0.1,0.2,0.2,0.4,0.3,0.6l4.6-4.6C11.3,35.5,11.1,35.5,10.9,35.4z"/>
	<path class="st1" d="M9.8,43.5c2.7,0,4.9-2.2,4.9-4.9s-2.2-4.9-4.9-4.9s-4.9,2.2-4.9,4.9C5,41.3,7.2,43.5,9.8,43.5z M9.8,34.4
		c2.3,0,4.1,1.9,4.1,4.1c0,2.3-1.9,4.1-4.1,4.1c-2.3,0-4.1-1.9-4.1-4.1C5.7,36.3,7.6,34.4,9.8,34.4z"/>
	<path class="st2" d="M9.8,45.3c3.7,0,6.7-3,6.7-6.7c0-0.6-0.1-1.2-0.2-1.8c-0.8-2.8-3.4-4.9-6.4-4.9c-3.7,0-6.7,3-6.7,6.7
		c0,1.2,0.3,2.4,0.9,3.4C5.3,44,7.4,45.3,9.8,45.3z M9.8,33.7c2.7,0,4.9,2.2,4.9,4.9s-2.2,4.9-4.9,4.9s-4.9-2.2-4.9-4.9
		C5,35.9,7.2,33.7,9.8,33.7z"/>
	<path class="st2" d="M36.5,20.8l-0.3-1.6l-1.1,1.2c-1.5,1.6-3.3,1.7-4.4,1.6c0.1-0.4,0.2-0.8,0.3-1.2l0,0l0,0
		c0.5-2.7,0.2-5.8-0.9-9.4c-1-3.4-2.4-5.8-2.4-5.9l-0.9-1.7l-0.6,1.9c-0.7,2.2-1.5,4.3-2.2,5.7C21.7,3.1,16.3,1.1,16.1,1l-2.7-1
		l1.7,2.2c2.8,3.7-0.3,9.4-1.7,11.5c-2.2-2.8-1.3-6.1-1.2-6.2L13,5.1l-2,1.5C7.7,9.1,5.9,13,5.9,18c0,1.5,0.2,2.8,0.4,3.9
		c-2-2.6-1.7-5.3-1.7-5.4l-1.5-0.6C-0.2,20.8-0.3,28,1.4,32.8L3,32.2c-1.3-3.5-1.5-8.6,0.1-12.7c0-0.1,0.1-0.2,0.1-0.3
		c0.3,1.2,0.9,2.6,2,4l0,0c0.1,0.1,1.3,1.9,3.6,3l0.6,0.4l-0.1-0.2c0.9,0.4,2,0.7,3.2,0.8l0,0l0,0l0,0l0.1-1.6
		c-1.7-0.1-3.1-0.8-4.1-1.5C8.2,23.4,5.7,15,10.3,9.6c0.1-0.1,0.1-0.2,0.2-0.2c0,1.6,0.4,3.8,2.1,5.7l0,0c0.1,0.1,1.8,2.2,4.5,3.3
		l0,0l0.6-1.5c-1.3-0.5-2.3-1.3-3-2c0.5-0.8,1.5-2.4,2.3-4.3c0.9-2.2,1.2-4.2,0.9-6c0-0.2-0.1-0.5-0.1-0.7c1.8,1.5,4.2,4.5,5.1,10
		l0.4,2.1v0.2l0.9-1.7l0.2-0.3c0,0,0.1-0.1,0.2-0.3l0,0C25,13,26,10.9,27,8.3c0-0.1,0-0.1,0.1-0.2c1.2,2.7,3.1,7.9,2.3,12.4
		c-0.1,0.4-1,3.9-2.9,6.1l0,0l1.2,1.1c1.1-1.2,1.9-2.8,2.4-4.1c1,0.2,2.9,0.3,4.8-0.8c0.1,0,0.2-0.1,0.2-0.1c0.1,2.1-0.2,6.2-3,9.3
		l0,0l1.2,1.1C37.7,28,36.6,21.1,36.5,20.8z"/>
	<path class="st2" d="M27.8,48.3L27.8,48.3L27.8,48.3c-0.1,0.1-3.9,6.5-10.1,9.8c0,0,0,0-0.1,0c-3.5-2.1-5.8-4.6-7.2-6.3
		c-1.5-2-2.2-3.4-2.2-3.4L6.7,49c0.1,0.3,2.8,6.4,10.5,10.7l0.4,0.2l0.4-0.2c7-3.5,11-10.4,11.2-10.7L27.8,48.3L27.8,48.3z"/>
	<path class="st2" d="M9.8,42.7c2.3,0,4.1-1.9,4.1-4.1c0-2.3-1.9-4.1-4.1-4.1c-2.3,0-4.1,1.9-4.1,4.1C5.7,40.9,7.6,42.7,9.8,42.7z
		 M12.8,36.9c0.3,0.5,0.5,1.1,0.5,1.7c0,1.9-1.5,3.4-3.4,3.4c-0.6,0-1.2-0.2-1.7-0.5L12.8,36.9z M6.5,38.6c0-1.9,1.5-3.4,3.4-3.4
		c0.1,0,0.1,0,0.2,0l-3.6,3.6C6.5,38.7,6.5,38.7,6.5,38.6z M6.6,39.7l4.3-4.3c0.2,0.1,0.4,0.2,0.6,0.3l-4.6,4.6
		C6.8,40.1,6.7,39.9,6.6,39.7z"/>
	<path class="st1" d="M25.4,42c1.9,0,3.4-1.5,3.4-3.4c0-0.6-0.2-1.2-0.5-1.7l-4.6,4.6C24.2,41.8,24.8,42,25.4,42z"/>
	<path class="st1" d="M25.4,35.2c-1.9,0-3.4,1.5-3.4,3.4c0,0.1,0,0.1,0,0.2l3.6-3.6C25.5,35.2,25.4,35.2,25.4,35.2z"/>
	<path class="st1" d="M25.4,43.5c2.7,0,4.9-2.2,4.9-4.9s-2.2-4.9-4.9-4.9s-4.9,2.2-4.9,4.9S22.7,43.5,25.4,43.5z M25.4,34.4
		c2.3,0,4.1,1.9,4.1,4.1c0,2.3-1.9,4.1-4.1,4.1c-2.3,0-4.1-1.9-4.1-4.1C21.2,36.3,23.1,34.4,25.4,34.4z"/>
	<path class="st1" d="M26.4,35.4l-4.3,4.3c0.1,0.2,0.2,0.4,0.3,0.6l4.6-4.6C26.8,35.5,26.6,35.5,26.4,35.4z"/>
	<path class="st2" d="M25.4,45.3c3.7,0,6.7-3,6.7-6.7c0-0.6-0.1-1.2-0.2-1.8c-0.8-2.8-3.4-4.9-6.4-4.9c-3.7,0-6.7,3-6.7,6.7
		c0,1.2,0.4,2.4,0.9,3.4C20.8,44,22.9,45.3,25.4,45.3z M25.4,33.7c2.7,0,4.9,2.2,4.9,4.9s-2.2,4.9-4.9,4.9s-4.9-2.2-4.9-4.9
		S22.7,33.7,25.4,33.7z"/>
	<path class="st2" d="M25.4,42.7c2.3,0,4.1-1.9,4.1-4.1c0-2.3-1.9-4.1-4.1-4.1c-2.3,0-4.1,1.9-4.1,4.1
		C21.2,40.9,23.1,42.7,25.4,42.7z M28.3,36.9c0.3,0.5,0.5,1.1,0.5,1.7c0,1.9-1.5,3.4-3.4,3.4c-0.6,0-1.2-0.2-1.7-0.5L28.3,36.9z
		 M22,38.6c0-1.9,1.5-3.4,3.4-3.4c0.1,0,0.1,0,0.2,0L22,38.8C22,38.7,22,38.7,22,38.6z M22.2,39.7l4.3-4.3c0.2,0.1,0.4,0.2,0.6,0.3
		l-4.6,4.6C22.3,40.1,22.2,39.9,22.2,39.7z"/>
</g>
</svg>
