<?xml version="1.0" encoding="utf-8"?>
<!-- Generator: Adobe Illustrator 21.1.0, SVG Export Plug-In . SVG Version: 6.00 Build 0)  -->
<svg version="1.1" id="Layer_1" xmlns="http://www.w3.org/2000/svg" xmlns:xlink="http://www.w3.org/1999/xlink" x="0px" y="0px"
	 viewBox="0 0 200 200" style="enable-background:new 0 0 200 200;" xml:space="preserve">
<style type="text/css">
	.st0{fill:#FFFFFF;}
</style>
<path class="st0" d="M172.9,64.6C172.9,64.6,172.9,64.4,172.9,64.6c0-7-2.7-14-7.8-19l0,0c-5.1-5.1-11.8-7.8-19-7.8
	c-7.2,0-14,2.7-19,7.8l-2.1,2.1l14.8,14.8l-73.2-0.1l-9.1-25.2l-26.6-8.7c-1.5-0.4-3.2,0.4-3.6,1.9c-0.4,1.5,0.4,3.2,1.9,3.6
	L53,41.9l7.4,20.5l-26.9,0l57.1,58l0,45.7l-19.7,0c-1.5,0-3,1.3-3,2.7s1.3,2.8,3,2.8l45.3,0c1.5,0,2.8-1.3,2.8-2.7s-1.3-2.8-2.7-2.8
	l-19.9,0l0-45.9l50.2-50.9l16.5,16.5l2.1-2.1C170.1,78.3,172.7,71.6,172.9,64.6L172.9,64.6z M148.6,43.4c3.6,0.4,7.2,1.9,10.1,4.2
	l-10.2,9.9L148.6,43.4z M152.6,61.6l10.2-10.1c2.3,3,3.6,6.6,4.2,10.2C167,61.6,152.6,61.6,152.6,61.6z M142.9,43.4l0,14.2
	l-10.1-10.2C135.9,45.3,139.3,43.8,142.9,43.4z M62.5,67.9l5.1,14l-6.6,0l-13.9-14L62.5,67.9z M93.3,114.9L66.5,87.6l5.1,0l0,0l0,0
	l48.9,0L93.3,114.9z M125.9,81.9l-52.5,0l-5.1-14l71.3,0.1L125.9,81.9z M162.7,77.5l-10.1-10.2l14.2,0
	C166.3,70.9,165.1,74.5,162.7,77.5z"/>
</svg>
