<?xml version="1.0" encoding="utf-8"?>
<!-- Generator: Adobe Illustrator 21.1.0, SVG Export Plug-In . SVG Version: 6.00 Build 0)  -->
<svg version="1.1" id="Layer_1" xmlns="http://www.w3.org/2000/svg" xmlns:xlink="http://www.w3.org/1999/xlink" x="0px" y="0px"
	 viewBox="0 0 200 200" style="enable-background:new 0 0 200 200;" xml:space="preserve">
<style type="text/css">
	.st0{fill:#FFFFFF;}
</style>
<g>
	<path class="st0" d="M41.7,89.1c-0.6,0-0.9-0.2-1.5-0.4c-1.1-0.8-1.5-2.5-0.8-3.6c0.9-1.3,23.8-34.4,45-32c1.5,0.2,2.5,1.5,2.3,2.8
		c-0.2,1.5-1.5,2.5-2.8,2.3c-9.3-1.1-19.7,7-26.7,13.8C49.3,79.9,43.8,88,43.6,88C43.4,88.7,42.7,89.1,41.7,89.1z"/>
	<path class="st0" d="M111.9,60.2c-0.9,0-1.9-0.6-2.3-1.3c-0.8-1.3-0.2-2.8,1.1-3.6l5.1-2.6c1.3-0.8,2.8-0.2,3.6,1.1
		c0.8,1.3,0.2,2.8-1.1,3.6l-5.1,2.6C112.7,60,112.3,60.2,111.9,60.2z"/>
	<path class="st0" d="M100,157.4c-11.3,0-27.8-5.1-43.1-13.4c-18-9.6-32.5-22.5-41.4-36.3c-0.6-0.8-0.6-1.7-0.2-2.5
		c1.1-2.3,29.1-57.9,63.2-62.4c1.3-0.2,2.6-0.2,3.8-0.2c6.8,0,10.4,2.8,13.1,4.9c1.9,1.5,3,2.3,4.5,2.5c1.5,0,2.6-0.9,4.5-2.5
		c2.6-2.1,6.2-4.9,13.1-4.9c1.1,0,2.5,0,3.8,0.2c14.8,1.7,29.7,12.9,45,32.9c11.2,14.8,18.2,28.7,18.5,29.3c0.4,0.8,0.4,1.7-0.2,2.5
		c-8.9,14-23.5,26.9-41.4,36.7C127.8,152.3,111.3,157.4,100,157.4z M20.6,106.1c18.7,28.2,59.2,46.2,79.4,46.2s60.7-18,79.4-46.2
		c-4.4-8.3-30.1-54.5-58.6-58.3c-1.1-0.2-2.3-0.2-3.2-0.2c-4.9,0-7.4,1.9-9.8,3.8c-2.1,1.7-4.4,3.4-7.8,3.6h-0.2
		c-3.4-0.2-5.7-1.9-7.8-3.6c-2.5-1.9-4.7-3.8-9.8-3.8c-0.9,0-2.1,0-3.2,0.2C50.6,51.5,25.1,97.6,20.6,106.1z M100,115.4
		c-2.5,0-5.5-1.3-9.6-3.2c-6.1-2.6-13.6-6.1-21.4-6.1h-0.2c-3.4,0-8.9,0.2-16.5,0.6c-1.3,0-2.5-0.8-2.6-2.1s0.4-2.5,1.7-3
		c5.9-2.1,10.8-4.9,14.8-7.2c3.8-2.3,7-4,9.6-4.5c1.5-0.4,3-0.4,4.7-0.4c3.6,0,6.8,0.8,9.8,1.7c3,0.8,6.1,1.5,9.6,1.5
		c3.6,0,6.4-0.8,9.6-1.5c3-0.8,6.2-1.7,9.8-1.7c1.5,0,3,0.2,4.7,0.4c2.8,0.6,5.9,2.3,9.6,4.5c4,2.3,8.9,5.1,14.8,7.2
		c1.1,0.4,1.9,1.7,1.7,3c-0.2,1.3-1.3,2.1-2.6,2.1c-7.4-0.4-12.9-0.6-16.5-0.6H131c-7.6,0-15.1,3.4-21.4,6.1
		C105.5,114.1,102.5,115.4,100,115.4z M68.8,101H69c8.7,0,17.2,3.8,23.3,6.4c3,1.3,6.2,2.8,7.6,2.8s4.5-1.3,7.6-2.8
		c6.4-2.6,14.9-6.4,23.6-6.4h0.2c1.1,0,2.3,0,3.8,0c-1.3-0.8-2.5-1.5-3.6-2.1c-3.4-1.9-6.2-3.6-8.1-4c-1.3-0.2-2.5-0.4-3.8-0.4
		c-3,0-5.7,0.8-8.5,1.5c-3.2,0.9-6.6,1.7-11,1.7c-4.2,0-7.6-0.9-11-1.7c-2.8-0.8-5.7-1.5-8.5-1.5c-1.3,0-2.5,0.2-3.8,0.4
		c-1.9,0.4-4.7,2.1-8.1,4c-1.1,0.6-2.5,1.3-3.6,2.1C66.5,101,67.8,101,68.8,101z"/>
</g>
</svg>
