<?xml version="1.0" encoding="utf-8"?>
<!-- Generator: Adobe Illustrator 21.1.0, SVG Export Plug-In . SVG Version: 6.00 Build 0)  -->
<svg version="1.1" id="Layer_1" xmlns="http://www.w3.org/2000/svg" xmlns:xlink="http://www.w3.org/1999/xlink" x="0px" y="0px"
	 viewBox="0 0 298.8 66.1" style="enable-background:new 0 0 298.8 66.1;" xml:space="preserve">
<style type="text/css">
	.st0{fill:none;}
	.st1{fill:#6340D3;}
	.st2{fill:#04AEEE;}
	.st3{fill:#27A8E0;}
	.st4{fill:#FFFFFF;}
</style>
<g>
	<polygon class="st0" points="270.4,36.4 265.5,26.1 260.6,36.4 	"/>
	<path class="st0" d="M65.3,24.9h-5.4v15h5.4c4.2,0,6.3-2.6,6.3-7.8C71.6,27.3,69.5,24.9,65.3,24.9z"/>
	<path class="st0" d="M288.5,23.3h-5.7v15.8h5.7c4.5,0,6.7-2.8,6.7-8.3C295.2,25.8,293,23.3,288.5,23.3z"/>
	<path class="st1" d="M64.4,21.6h-7.8v21.8h7.9c7.1,0,10.7-3.8,10.7-11.3C75.1,25.1,71.5,21.6,64.4,21.6z M65.3,39.9h-5.4v-15h5.4
		c4.2,0,6.3,2.4,6.3,7.1C71.6,37.3,69.5,39.9,65.3,39.9z"/>
	<polygon class="st1" points="80.8,32.1 89.1,32.1 89.1,28.7 80.8,28.7 80.8,24.9 89.1,24.9 89.1,21.6 77.3,21.6 77.3,43.3 
		90.7,43.3 90.7,39.9 80.8,39.9 	"/>
	<polygon class="st1" points="211.6,32.1 219.9,32.1 219.9,28.7 211.6,28.7 211.6,24.9 219.9,24.9 219.9,21.6 208.2,21.6 
		208.2,43.3 221.6,43.3 221.6,39.9 211.6,39.9 	"/>
	<path class="st1" d="M101.7,30.2h-2.4c-1.9,0-2.9-0.9-2.9-2.8c0-1.6,1-2.5,2.9-2.5h8.1v-3.4h-7.6c-4.4,0-6.7,1.9-6.7,5.8
		c0,4.2,2.2,6.3,6.7,6.3h2.4c2.5,0,3.7,1,3.7,3.1c0,2.2-1.2,3.2-3.7,3.2h-8.9v3.4h8.5c4.9,0,7.4-2.2,7.4-6.6
		C109.2,32.4,106.7,30.2,101.7,30.2z"/>
	<rect x="111.5" y="21.6" class="st1" width="3.4" height="21.8"/>
	<path class="st1" d="M129.6,36.5h4.8v0.8c-0.7,0.9-1.6,1.7-2.7,2.2c-1.1,0.6-2.2,0.8-3.5,0.8c-1.1,0-2.1-0.2-3.1-0.6
		c-1-0.4-1.8-1-2.5-1.7s-1.3-1.5-1.7-2.5c-0.4-1-0.6-2-0.6-3.1c0-1.1,0.2-2.1,0.6-3c0.4-1,1-1.8,1.7-2.5s1.5-1.3,2.5-1.7
		c1-0.4,2-0.6,3.1-0.6c0.5,0,1.1,0.1,1.6,0.2s1,0.2,1.4,0.5l0.6,0.3l1.8-2.8c-0.8-0.5-1.7-0.9-2.6-1.1c-0.9-0.2-1.9-0.3-2.8-0.3
		c-1.5,0-3,0.3-4.3,0.9c-1.4,0.6-2.6,1.4-3.6,2.4s-1.8,2.2-2.4,3.6s-0.9,2.8-0.9,4.4c0,1.5,0.3,3,0.9,4.3c0.6,1.4,1.4,2.6,2.4,3.6
		s2.2,1.8,3.6,2.4c1.4,0.6,2.8,0.9,4.3,0.9c1.1,0,2.2-0.2,3.3-0.5c1-0.3,2-0.8,2.9-1.4v5.8h3.4V33.1h-8.2V36.5z"/>
	<polygon class="st1" points="152.7,36.1 141.8,21.6 139.7,21.6 139.7,43.3 143.1,43.3 143.1,28.7 154,43.3 156,43.3 156,18.2 
		152.7,18.2 	"/>
	<polygon class="st1" points="170.8,18.2 167.4,18.2 167.4,43.3 180.9,43.3 180.9,39.9 170.8,39.9 	"/>
	<rect x="183.1" y="21.6" class="st1" width="3.4" height="21.8"/>
	<polygon class="st1" points="201.3,21.6 193.5,29.5 193.5,18.2 190.1,18.2 190.1,43.3 193.5,43.3 193.5,35.5 201.3,43.3 
		206.2,43.3 195,32.5 206.2,21.6 	"/>
	<polygon class="st1" points="241,33.9 233.7,19.7 230.1,19.7 230.1,42.7 233.7,42.7 233.7,27.1 240,39.3 241.9,39.3 248.3,27.1 
		248.3,47.3 251.9,47.3 251.9,19.7 248.3,19.7 	"/>
	<path class="st1" d="M253,43.6h4.1l1.7-3.6h13.3l4.2,8.1h4.1l-15-29.4L253,43.6z M270.4,36.4h-9.8l4.9-10.3L270.4,36.4z"/>
	<path class="st1" d="M287.5,19.7h-8.3v23h8.3c7.5,0,11.3-4,11.3-11.9C298.8,23.4,295.1,19.7,287.5,19.7z M288.5,39.1h-5.7V23.3h5.7
		c4.5,0,6.7,2.5,6.7,7.5C295.2,36.4,293,39.1,288.5,39.1z"/>
	<path class="st2" d="M17.4,7c0.1,0.2,0.1,0.5,0.1,0.7c1.2,1.8,3.4,5.8,3.5,11.2l1.7,0.3c0,0,0,0,0-0.1L22.5,17
		C21.6,11.5,19.2,8.5,17.4,7z"/>
	<path class="st3" d="M24.2,16.9L24.2,16.9L24.2,16.9L24.2,16.9z"/>
	<path class="st2" d="M12.2,18.1L12.2,18.1c-1.7-2-2.1-4.1-2.1-5.7c-0.1,0.1-0.1,0.2-0.2,0.2C9.8,14.7,10,20,14.3,23.1l0,0l2.3-1.6
		C14,20.3,12.3,18.2,12.2,18.1z"/>
	<path class="st2" d="M9,29.6l-0.6-0.4c-2.3-1.2-3.5-2.9-3.6-3l0,0c-1.1-1.4-1.7-2.8-2-4c0,0.1,0,0.2,0,0.3c0.1,2.1,1.1,6.6,6.1,9.6
		l3.3-1.9C11,30.1,9.9,29.8,9,29.4V29.6z"/>
	<path class="st3" d="M12.1,30.3L12.1,30.3L12.1,30.3z"/>
	<path class="st2" d="M13.7,48.6c2.9-1.8,3.8-5.5,2.3-8.8c0.2,0.6,0.2,1.1,0.2,1.8c0,3.7-3,6.7-6.7,6.7C7.1,48.3,5,47,3.8,45
		c0.1,0.3,0.3,0.6,0.5,0.9C6.3,49.4,10.6,50.6,13.7,48.6z"/>
	<path class="st2" d="M26.7,11.1c0,0.1,0,0.1-0.1,0.2c0.7,2,2.9,9.5-0.9,15.6l0.4,2.7c2-2.2,2.9-5.7,2.9-6.1
		C29.8,19,27.9,13.8,26.7,11.1z"/>
	<path class="st2" d="M34.7,25.7c-0.1,0.1-0.2,0.1-0.2,0.1c-0.1,1.6-0.7,4.8-3.2,7l0.4,2.1C34.5,31.8,34.8,27.8,34.7,25.7z"/>
	<path class="st2" d="M27.4,51.3L27.4,51.3h-2c-2.8,5.5-8.2,9.7-8.2,9.7v0.1c0,0,0,0,0.1,0C23.6,57.9,27.4,51.4,27.4,51.3z"/>
	<polygon class="st3" points="27.5,51.3 27.4,51.3 27.4,51.4 	"/>
	<path class="st4" d="M10.6,38.4l-4.3,4.3c0.1,0.2,0.2,0.4,0.3,0.6l4.6-4.6C11,38.6,10.8,38.5,10.6,38.4z"/>
	<path class="st4" d="M9.5,38.2c-1.9,0-3.4,1.5-3.4,3.4c0,0.1,0,0.1,0,0.2l3.6-3.6C9.7,38.2,9.6,38.2,9.5,38.2z"/>
	<path class="st4" d="M9.5,45c1.9,0,3.4-1.5,3.4-3.4c0-0.6-0.2-1.2-0.5-1.7l-4.6,4.6C8.4,44.8,8.9,45,9.5,45z"/>
	<path class="st4" d="M9.5,46.5c2.7,0,4.9-2.2,4.9-4.9s-2.2-4.9-4.9-4.9s-4.9,2.2-4.9,4.9C4.7,44.3,6.8,46.5,9.5,46.5z M9.5,37.5
		c2.3,0,4.1,1.9,4.1,4.1c0,2.3-1.9,4.1-4.1,4.1c-2.3,0-4.1-1.9-4.1-4.1C5.4,39.3,7.2,37.5,9.5,37.5z"/>
	<path class="st1" d="M9.5,48.3c3.7,0,6.7-3,6.7-6.7c0-0.6-0.1-1.2-0.2-1.8c-0.8-2.8-3.4-4.9-6.4-4.9c-3.7,0-6.7,3-6.7,6.7
		C2.8,42.9,3.2,44,3.8,45C5,47,7.1,48.3,9.5,48.3z M9.5,36.7c2.7,0,4.9,2.2,4.9,4.9s-2.2,4.9-4.9,4.9s-4.9-2.2-4.9-4.9
		C4.7,38.9,6.8,36.7,9.5,36.7z"/>
	<path class="st1" d="M35.9,22.3l-1.1,1.2c-1.5,1.6-3.3,1.7-4.4,1.6c0.1-0.4,0.2-0.8,0.3-1.2l0,0l0,0c0.5-2.7,0.2-5.8-0.9-9.4
		c-1-3.4-2.4-5.8-2.4-5.9l-0.9-1.7l-0.7,1.8c-0.7,2.2-1.5,4.3-2.2,5.7C21.4,6.2,16,4.1,15.8,4l-2.7-1l1.7,2.2
		c2.8,3.7-0.3,9.4-1.7,11.5c-2.2-2.8-1.3-6.1-1.2-6.2l0.7-2.3l-2,1.5c-3.3,2.4-5,6.4-5,11.3c0,1.5,0.2,2.8,0.4,3.9
		c-2-2.6-1.7-5.3-1.7-5.4L2.8,19c-3.3,4.8-3.4,12.1-1.7,16.8l1.5-0.6c-1.2-3.5-1.4-8.6,0.2-12.7c0-0.1,0.1-0.2,0.1-0.3
		c0.3,1.2,0.9,2.6,2,4l0,0c0.1,0.1,1.3,1.9,3.6,3l0.6,0.4L9,29.4c0.9,0.4,2,0.7,3.2,0.8l0,0l0,0l0,0l0.1-1.6
		c-1.7-0.1-3.1-0.8-4.1-1.5C7.9,26.4,5.4,18,9.9,12.6c0.1-0.1,0.1-0.2,0.2-0.2c0,1.6,0.4,3.8,2.1,5.7l0,0c0.1,0.1,1.8,2.2,4.5,3.3
		l0,0l0.6-1.5c-1.3-0.5-2.3-1.3-3-2c0.5-0.8,1.5-2.4,2.3-4.3c0.9-2.2,1.2-4.2,0.9-6c0-0.2-0.1-0.5-0.1-0.7c1.8,1.5,4.2,4.5,5.1,10
		l0.4,2.1v0.2l0.9-1.7l0.2-0.3c0,0,0.1-0.1,0.2-0.3l0,0c0.4-0.8,1.5-2.9,2.4-5.6c0-0.1,0-0.1,0.1-0.2c1.2,2.7,3.1,7.9,2.3,12.4
		c-0.1,0.4-1,3.9-2.9,6.1l0,0l1.2,1.1c1.1-1.2,1.9-2.8,2.4-4.1c1,0.2,2.9,0.3,4.8-0.8c0.1,0,0.2-0.1,0.2-0.1c0.1,2.1-0.2,6.2-3,9.3
		l0,0l1.2,1.1c4.5-5,3.3-11.9,3.3-12.2L35.9,22.3z"/>
	<path class="st1" d="M27.4,51.3L27.4,51.3L27.4,51.3c-0.1,0.1-3.9,6.5-10.1,9.8c0,0,0,0-0.1,0c-3.5-2.1-5.8-4.6-7.2-6.3
		c-1.5-2-2.2-3.4-2.2-3.4l-1.5,0.7c0.1,0.3,2.8,6.4,10.5,10.7l0.4,0.2l0.4-0.2c7-3.5,11-10.4,11.2-10.7L27.4,51.3L27.4,51.3z"/>
	<path class="st1" d="M9.5,45.8c2.3,0,4.1-1.9,4.1-4.1c0-2.3-1.9-4.1-4.1-4.1c-2.3,0-4.1,1.9-4.1,4.1C5.4,43.9,7.2,45.8,9.5,45.8z
		 M12.5,40c0.3,0.5,0.5,1.1,0.5,1.7c0,1.9-1.5,3.4-3.4,3.4c-0.6,0-1.2-0.2-1.7-0.5L12.5,40z M6.1,41.6c0-1.9,1.5-3.4,3.4-3.4
		c0.1,0,0.1,0,0.2,0l-3.6,3.6C6.2,41.8,6.1,41.7,6.1,41.6z M6.3,42.7l4.3-4.3c0.2,0.1,0.4,0.2,0.6,0.3l-4.6,4.6
		C6.5,43.1,6.4,42.9,6.3,42.7z"/>
	<path class="st2" d="M31.7,41.6c0,3.7-3,6.7-6.7,6.7c-2.4,0-4.6-1.3-5.7-3.3c0.1,0.3,0.3,0.6,0.5,0.9c2.1,3.4,6.3,4.6,9.4,2.7
		c2.9-1.8,3.8-5.5,2.3-8.8C31.6,40.4,31.7,41,31.7,41.6z"/>
	<path class="st4" d="M25,46.5c2.7,0,4.9-2.2,4.9-4.9s-2.2-4.9-4.9-4.9s-4.9,2.2-4.9,4.9C20.2,44.3,22.4,46.5,25,46.5z M25,37.5
		c2.3,0,4.1,1.9,4.1,4.1c0,2.3-1.9,4.1-4.1,4.1c-2.3,0-4.1-1.9-4.1-4.1C20.9,39.3,22.8,37.5,25,37.5z"/>
	<path class="st4" d="M25,38.2c-1.9,0-3.4,1.5-3.4,3.4c0,0.1,0,0.1,0,0.2l3.6-3.6C25.2,38.2,25.1,38.2,25,38.2z"/>
	<path class="st4" d="M26.1,38.4l-4.3,4.3c0.1,0.2,0.2,0.4,0.3,0.6l4.6-4.6C26.5,38.6,26.3,38.5,26.1,38.4z"/>
	<path class="st4" d="M25,45c1.9,0,3.4-1.5,3.4-3.4c0-0.6-0.2-1.2-0.5-1.7l-4.6,4.6C23.9,44.8,24.4,45,25,45z"/>
	<path class="st1" d="M25,48.3c3.7,0,6.7-3,6.7-6.7c0-0.6-0.1-1.2-0.2-1.8c-0.8-2.8-3.4-4.9-6.4-4.9c-3.7,0-6.7,3-6.7,6.7
		c0,1.2,0.3,2.4,0.9,3.4C20.5,47,22.6,48.3,25,48.3z M25,36.7c2.7,0,4.9,2.2,4.9,4.9s-2.2,4.9-4.9,4.9s-4.9-2.2-4.9-4.9
		C20.2,38.9,22.4,36.7,25,36.7z"/>
	<path class="st1" d="M25,45.8c2.3,0,4.1-1.9,4.1-4.1c0-2.3-1.9-4.1-4.1-4.1c-2.3,0-4.1,1.9-4.1,4.1C20.9,43.9,22.8,45.8,25,45.8z
		 M28,40c0.3,0.5,0.5,1.1,0.5,1.7c0,1.9-1.5,3.4-3.4,3.4c-0.6,0-1.2-0.2-1.7-0.5L28,40z M21.7,41.6c0-1.9,1.5-3.4,3.4-3.4
		c0.1,0,0.1,0,0.2,0l-3.6,3.6C21.7,41.8,21.7,41.7,21.7,41.6z M21.8,42.7l4.3-4.3c0.2,0.1,0.4,0.2,0.6,0.3l-4.6,4.6
		C22,43.1,21.9,42.9,21.8,42.7z"/>
</g>
</svg>
