<?xml version="1.0" encoding="utf-8"?>
<!-- Generator: Adobe Illustrator 21.1.0, SVG Export Plug-In . SVG Version: 6.00 Build 0)  -->
<svg version="1.1" id="Layer_1" xmlns="http://www.w3.org/2000/svg" xmlns:xlink="http://www.w3.org/1999/xlink" x="0px" y="0px"
	 viewBox="0 0 312 72.4" style="enable-background:new 0 0 312 72.4;" xml:space="preserve">
<style type="text/css">
	.st0{fill:#73D7E6;}
	.st1{fill:none;}
	.st2{fill:#513794;}
	.st3{fill:#27A8E0;}
	.st4{fill:#FFFFFF;}
</style>
<g>
	<path class="st0" d="M233.8,60.7l-3.2,0.1c-1.9,0-3.2-0.1-3.9-0.2c-0.7-0.1-1.3-0.3-1.8-0.5c-0.5-0.2-0.9-0.4-1.3-0.7
		c-0.8-0.6-1.1-1.4-1.1-2.3c0-0.3,0.2-0.7,0.5-1.3c0.4-0.6,1-1.3,1.8-2.1c0.9-0.8,1.9-1.5,3.1-2.3c1.2-0.7,2.8-1.3,4.7-1.9
		c1.9-0.5,4.1-0.8,6.3-0.9c0.8,0,1.7,0.1,2.6,0.3c0.9,0.2,1.6,0.4,2.2,0.7s1.1,0.7,1.6,1.2c0.5,0.5,0.7,1.2,0.7,1.9
		c0,0.6-0.6,1.2-1.7,1.9c-1.2,0.7-2.9,1.1-4.9,1.1c-2,0-3.1-0.1-3.1-0.4c0-0.2,0.6-0.5,1.8-0.8c1.2-0.3,2.4-0.7,3.6-1.1
		c1.2-0.4,1.8-0.9,1.8-1.4c0-0.3-0.5-0.4-1.4-0.4c-6,0-11.1,1.6-15.4,4.7c-0.8,0.6-1.2,1.1-1.2,1.5c0,0.7,2.1,1,6.4,1
		c3.9,0,5.8,1.1,5.8,3.1c0,1.4-1,2.8-2.9,4.1c-2,1.3-4.3,2.3-6.9,3s-5.2,1.1-7.5,1.1c-1.1,0-2.3-0.3-3.5-0.9
		c-1.2-0.6-1.8-1.3-1.8-2.1c0-0.3,0.2-0.4,0.7-0.4c2.4-0.3,4-0.6,4.7-0.9c0.2,0,0.3-0.1,0.4-0.1c0.1,0,0.2,0,0.2,0.1
		c0,0.1-0.1,0.2-0.4,0.4c-0.2,0.1-0.5,0.2-0.7,0.3c-0.6,0.2-0.9,0.3-0.9,0.4c0,0.1,0.2,0.1,0.6,0.1c0.4,0,1.5-0.2,3.1-0.5
		c1.7-0.3,3.5-0.8,5.4-1.3c1.9-0.5,3.6-1.2,5.1-1.9c1.5-0.8,2.2-1.5,2.2-2.2C235.4,61,234.9,60.7,233.8,60.7z"/>
	<path class="st0" d="M241.6,69c-1.6,0-2.4-1-2.4-2.9c0-1.2,0.5-2.5,1.6-3.9c1.1-1.4,2.3-2.5,3.8-3.4c1.4-0.9,2.7-1.3,3.8-1.3
		c0.5,0,1,0.2,1.4,0.6s0.6,0.8,0.6,1.1c0,0.7-0.5,1.5-1.5,2.3s-2,1.5-3.1,2.1c-1.1,0.5-1.8,0.8-2.1,0.8s-0.6-0.2-0.8-0.5
		c-0.1-0.1-0.2-0.1-0.3-0.1s-0.4,0.3-0.7,0.8c-0.3,0.5-0.5,1-0.5,1.3s0.1,0.6,0.4,0.6c1.6,0,3.3-0.5,5.1-1.4
		c1.8-0.9,4.4-2.5,7.6-4.9c0.2-0.2,0.6-0.4,1-0.7c0.5-0.3,0.7-0.5,0.8-0.6c0.2,0.1,0.3,0.3,0.3,0.5c0,0.2-0.1,0.4-0.3,0.6
		c-1,1-2.4,2.2-4,3.5c-1.6,1.3-3.5,2.5-5.7,3.6C244.6,68.4,242.9,69,241.6,69z M248.2,59c-0.5,0-1.4,0.6-2.7,1.7s-1.9,1.8-1.9,2
		c0,0,0,0.1,0.1,0.1c0.5,0,1.4-0.5,2.7-1.5s2-1.7,2-2.1C248.3,59.1,248.3,59,248.2,59z"/>
	<path class="st0" d="M255.3,67.1l0.2-2c0-0.1,0-0.1,0-0.1s-0.1,0-0.2,0.1c-0.3,0.3-0.6,0.6-1,1.1c-0.4,0.4-1.1,1-2.1,1.7
		c-1,0.7-1.8,1.1-2.4,1.1c-0.1,0-0.2-0.1-0.4-0.1c-0.2-0.1-0.4-0.2-0.6-0.5s-0.4-0.7-0.4-1.2c0-0.5,0.4-1.4,1.2-2.5
		c0.8-1.1,1.8-2.2,2.9-3.3s2.4-2,3.8-2.8c1.4-0.8,2.6-1.2,3.6-1.2c0.4,0,0.7,0.3,0.9,0.8c0.2-0.2,0.4-0.3,0.6-0.3
		c0.2,0,0.4,0.1,0.6,0.4c0.1,0,0.2,0.1,0.4,0.2c0.1,0.1,0.2,0.3,0.2,0.5c0,0.2-0.1,0.4-0.4,0.7c-0.4,0.5-0.9,1.1-1.5,1.8
		c-0.6,0.7-1,1.2-1.2,1.5c-0.2,0.3-0.5,0.6-0.8,1c-0.5,0.6-0.7,1.2-0.7,1.5c2.1-1,5.4-3.2,10-6.5c0.2,0.1,0.3,0.3,0.3,0.5
		c0,0.2-0.1,0.4-0.2,0.5c-0.2,0.1-0.4,0.3-0.6,0.5c-0.2,0.2-0.7,0.6-1.4,1.2c-0.7,0.6-1.4,1.2-2,1.7c-0.7,0.5-1.4,1.2-2.2,1.8
		c-0.8,0.7-1.6,1.2-2.2,1.7c-1.6,1.1-2.6,1.7-3,1.7s-0.7-0.1-0.8-0.4C255.4,68.2,255.3,67.7,255.3,67.1z M252.2,65.8
		c0.2,0,1-0.5,2.3-1.5c1.3-1,2.5-2,3.6-3l1.7-1.5c0.1-0.1,0.1-0.1,0.1-0.2s0,0-0.1,0c-0.8,0-1.8,0.5-3.1,1.3
		c-1.3,0.9-2.4,1.9-3.3,2.9C252.6,64.7,252.1,65.4,252.2,65.8C252.1,65.8,252.1,65.8,252.2,65.8z"/>
	<path class="st0" d="M276.1,54.1l1.6,0c2,0,3.5,0.3,4.5,0.9c0.5,0.1,0.7,0.3,0.7,0.6c0,0.2-0.2,0.3-0.6,0.3
		c-0.4,0.1-1.8,0.2-4.2,0.5c-2.4,0.3-4,0.4-4.9,0.4c-0.4,0-1.3,0.7-2.7,2c-1.4,1.3-2.8,2.8-4,4.4c-1.3,1.6-1.9,2.7-1.9,3.4
		c0,0.1,0.1,0.2,0.2,0.3s0.2,0.1,0.4,0.1c0.2,0,0.4-0.1,0.7-0.2c3.9-2.3,7.7-4.8,11.4-7.6c0.2,0.1,0.3,0.3,0.3,0.5
		c0,0.2-0.1,0.4-0.3,0.6c-0.2,0.2-0.5,0.5-0.9,0.9c-0.4,0.4-1.2,1-2.2,2c-1.1,1-2.1,1.8-3.1,2.6c-2.6,2.1-4.4,3.3-5.5,3.7
		c-0.4,0.1-0.8,0.2-1.3,0.2c-0.5,0-1-0.3-1.4-0.8c-0.4-0.5-0.6-1.2-0.6-2.1s0.6-2.2,1.7-3.8c1.1-1.7,2.7-3.4,4.7-5.1
		c0.2-0.1,0.3-0.3,0.3-0.4s-0.2-0.2-0.7-0.2l-2,0.1c-2.7,0-4.2-0.3-4.2-0.9c-0.6-0.1-1-0.3-1-0.6c0-0.1,0-0.1,0.1-0.1
		c0.1,0,0.2,0,0.2,0c0.1,0,0.2,0,0.3,0c0.1,0,1.3-0.2,3.4-0.5c2.1-0.3,4.6-0.6,7.3-0.8l2.1-2.9c0.1-0.2,0.6-0.4,1.3-0.4
		s1.1,0.2,1.1,0.5c0,0.1-0.1,0.3-0.2,0.6l-0.8,1.1c-0.1,0.3-0.2,0.6-0.2,0.7C275.7,54,275.9,54.1,276.1,54.1z"/>
	<path class="st0" d="M285.9,54.1l1.6,0c2,0,3.5,0.3,4.5,0.9c0.5,0.1,0.7,0.3,0.7,0.6c0,0.2-0.2,0.3-0.6,0.3
		c-0.4,0.1-1.8,0.2-4.2,0.5c-2.4,0.3-4,0.4-4.9,0.4c-0.4,0-1.3,0.7-2.7,2c-1.4,1.3-2.8,2.8-4,4.4c-1.3,1.6-1.9,2.7-1.9,3.4
		c0,0.1,0.1,0.2,0.2,0.3s0.2,0.1,0.4,0.1c0.2,0,0.4-0.1,0.7-0.2c3.9-2.3,7.7-4.8,11.4-7.6c0.2,0.1,0.3,0.3,0.3,0.5
		c0,0.2-0.1,0.4-0.3,0.6c-0.2,0.2-0.5,0.5-0.9,0.9c-0.4,0.4-1.2,1-2.2,2c-1.1,1-2.1,1.8-3.1,2.6c-2.6,2.1-4.4,3.3-5.5,3.7
		c-0.4,0.1-0.8,0.2-1.3,0.2c-0.5,0-1-0.3-1.4-0.8c-0.4-0.5-0.6-1.2-0.6-2.1s0.6-2.2,1.7-3.8c1.1-1.7,2.7-3.4,4.7-5.1
		c0.2-0.1,0.3-0.3,0.3-0.4s-0.2-0.2-0.7-0.2l-2,0.1c-2.7,0-4.2-0.3-4.2-0.9c-0.6-0.1-1-0.3-1-0.6c0-0.1,0-0.1,0.1-0.1
		c0.1,0,0.2,0,0.2,0c0.1,0,0.2,0,0.3,0c0.1,0,1.3-0.2,3.4-0.5c2.1-0.3,4.6-0.6,7.3-0.8l2.1-2.9c0.1-0.2,0.6-0.4,1.3-0.4
		s1.1,0.2,1.1,0.5c0,0.1-0.1,0.3-0.2,0.6l-0.8,1.1c-0.1,0.3-0.2,0.6-0.2,0.7C285.4,54,285.6,54.1,285.9,54.1z"/>
	<path class="st0" d="M285.5,66.4c0.7,0,2-0.6,4-1.8c2-1.2,3.8-2.4,5.5-3.7l2.5-1.8c0.2,0.1,0.3,0.3,0.3,0.5c0,0.2-0.1,0.4-0.3,0.6
		c-0.2,0.2-0.5,0.5-0.9,0.8c-0.4,0.4-1.1,1-2.2,1.9c-1.1,0.9-2.1,1.7-3,2.5c-2.4,2-4.2,3.1-5.4,3.5c-0.4,0.1-0.8,0.2-1.1,0.2
		c-0.4,0-0.7,0-0.9-0.1c-0.2-0.1-0.5-0.2-0.7-0.4c-0.5-0.5-0.8-1.5-0.8-3c0-0.4,0.2-1.1,0.6-2c0.4-0.9,1-2,1.8-3.2s1.9-2.5,3-3.8
		c1.1-1.3,2.6-2.5,4.4-3.8c1.8-1.3,3.7-2.3,5.7-3.1c0.3-0.1,0.6-0.2,0.8-0.2s0.5,0.1,0.7,0.3c0.2,0.2,0.4,0.4,0.4,0.7l0.2,0.3
		c0,0.5-0.7,1.5-2.2,3.1c-1.5,1.7-3.2,3.3-5.2,4.8c-2,1.5-3.8,2.8-5.5,3.9c-1.4,0.9-2.1,1.9-2.1,2.9C285,66,285.1,66.4,285.5,66.4z
		 M288.3,59.9c0.5,0,2.1-1.3,4.7-3.8c2.6-2.5,3.9-4,3.9-4.2l0-0.1l-0.5,0.2c-1.1,0.7-2.5,1.9-4.3,3.6c-1.8,1.7-3,3-3.7,4
		C288.2,59.7,288.2,59.8,288.3,59.9C288.2,59.9,288.2,59.9,288.3,59.9z"/>
	<path class="st0" d="M294.5,69c-1.6,0-2.4-1-2.4-2.9c0-1.2,0.5-2.5,1.6-3.9c1.1-1.4,2.3-2.5,3.8-3.4c1.4-0.9,2.7-1.3,3.8-1.3
		c0.5,0,1,0.2,1.4,0.6s0.6,0.8,0.6,1.1c0,0.7-0.5,1.5-1.5,2.3s-2,1.5-3.1,2.1c-1.1,0.5-1.8,0.8-2.1,0.8s-0.6-0.2-0.8-0.5
		c-0.1-0.1-0.2-0.1-0.3-0.1s-0.4,0.3-0.7,0.8c-0.3,0.5-0.5,1-0.5,1.3s0.1,0.6,0.4,0.6c1.6,0,3.3-0.5,5.1-1.4
		c1.8-0.9,4.4-2.5,7.6-4.9c0.2-0.2,0.6-0.4,1-0.7c0.5-0.3,0.7-0.5,0.8-0.6c0.2,0.1,0.3,0.3,0.3,0.5c0,0.2-0.1,0.4-0.3,0.6
		c-1,1-2.4,2.2-4,3.5c-1.6,1.3-3.5,2.5-5.7,3.6C297.6,68.4,295.9,69,294.5,69z M301.1,59c-0.5,0-1.4,0.6-2.7,1.7s-1.9,1.8-1.9,2
		c0,0,0,0.1,0.1,0.1c0.5,0,1.4-0.5,2.7-1.5s2-1.7,2-2.1C301.3,59.1,301.3,59,301.1,59z"/>
</g>
<g>
	<polygon class="st1" points="270.6,32.8 265.7,22.5 260.8,32.8 	"/>
	<path class="st1" d="M65.5,21.3h-5.4v15h5.4c4.2,0,6.3-2.6,6.3-7.8C71.8,23.7,69.7,21.3,65.5,21.3z"/>
	<path class="st1" d="M288.7,19.7H283v15.8h5.7c4.5,0,6.7-2.8,6.7-8.3C295.4,22.2,293.2,19.7,288.7,19.7z"/>
	<path class="st2" d="M64.6,18h-7.8v21.8h7.9c7.1,0,10.7-3.8,10.7-11.3C75.3,21.5,71.7,18,64.6,18z M65.5,36.3h-5.4v-15h5.4
		c4.2,0,6.3,2.4,6.3,7.1C71.8,33.7,69.7,36.3,65.5,36.3z"/>
	<polygon class="st2" points="81,28.5 89.3,28.5 89.3,25.1 81,25.1 81,21.3 89.3,21.3 89.3,18 77.5,18 77.5,39.7 90.9,39.7 
		90.9,36.3 81,36.3 	"/>
	<polygon class="st2" points="211.8,28.5 220.1,28.5 220.1,25.1 211.8,25.1 211.8,21.3 220.1,21.3 220.1,18 208.4,18 208.4,39.7 
		221.8,39.7 221.8,36.3 211.8,36.3 	"/>
	<path class="st2" d="M101.9,26.6h-2.4c-1.9,0-2.9-0.9-2.9-2.8c0-1.6,1-2.5,2.9-2.5h8.1v-3.4H100c-4.4,0-6.7,1.9-6.7,5.8
		c0,4.2,2.2,6.3,6.7,6.3h2.4c2.5,0,3.7,1,3.7,3.1c0,2.2-1.2,3.2-3.7,3.2h-8.9v3.4h8.5c4.9,0,7.4-2.2,7.4-6.6
		C109.4,28.8,106.9,26.6,101.9,26.6z"/>
	<rect x="111.7" y="18" class="st2" width="3.4" height="21.8"/>
	<path class="st2" d="M129.8,32.9h4.8v0.8c-0.7,0.9-1.6,1.7-2.7,2.2c-1.1,0.6-2.2,0.8-3.5,0.8c-1.1,0-2.1-0.2-3.1-0.6
		c-1-0.4-1.8-1-2.5-1.7s-1.3-1.5-1.7-2.5c-0.4-1-0.6-2-0.6-3.1c0-1.1,0.2-2.1,0.6-3c0.4-1,1-1.8,1.7-2.5s1.5-1.3,2.5-1.7
		s2-0.6,3.1-0.6c0.5,0,1.1,0.1,1.6,0.2c0.5,0.1,1,0.2,1.4,0.5L132,22l1.8-2.8c-0.8-0.5-1.7-0.9-2.6-1.1c-0.9-0.2-1.9-0.3-2.8-0.3
		c-1.5,0-3,0.3-4.3,0.9c-1.4,0.6-2.6,1.4-3.6,2.4s-1.8,2.2-2.4,3.6c-0.6,1.4-0.9,2.8-0.9,4.4c0,1.5,0.3,3,0.9,4.3
		c0.6,1.4,1.4,2.6,2.4,3.6s2.2,1.8,3.6,2.4c1.4,0.6,2.8,0.9,4.3,0.9c1.1,0,2.2-0.2,3.3-0.5c1-0.3,2-0.8,2.9-1.4v5.8h3.4V29.5h-8.2
		V32.9z"/>
	<polygon class="st2" points="152.9,32.5 142,18 139.9,18 139.9,39.7 143.3,39.7 143.3,25.1 154.2,39.7 156.2,39.7 156.2,14.6 
		152.9,14.6 	"/>
	<polygon class="st2" points="171,14.6 167.6,14.6 167.6,39.7 181.1,39.7 181.1,36.3 171,36.3 	"/>
	<rect x="183.3" y="18" class="st2" width="3.4" height="21.8"/>
	<polygon class="st2" points="201.5,18 193.7,25.9 193.7,14.6 190.3,14.6 190.3,39.7 193.7,39.7 193.7,31.9 201.5,39.7 206.4,39.7 
		195.2,28.9 206.4,18 	"/>
	<polygon class="st2" points="241.2,30.3 233.9,16.1 230.3,16.1 230.3,39.1 233.9,39.1 233.9,23.5 240.2,35.7 242.1,35.7 
		248.5,23.5 248.5,43.7 252.1,43.7 252.1,16.1 248.5,16.1 	"/>
	<path class="st2" d="M253.2,40h4.1l1.7-3.6h13.3l4.2,8.1h4.1l-15-29.4L253.2,40z M270.6,32.8h-9.8l4.9-10.3L270.6,32.8z"/>
	<path class="st2" d="M287.7,16.1h-8.3v23h8.3c7.5,0,11.3-4,11.3-11.9C299,19.8,295.3,16.1,287.7,16.1z M288.7,35.5H283V19.7h5.7
		c4.5,0,6.7,2.5,6.7,7.5C295.4,32.8,293.2,35.5,288.7,35.5z"/>
	<path class="st0" d="M17.6,3.4c0.1,0.2,0.1,0.5,0.1,0.7c1.2,1.8,3.4,5.8,3.5,11.2l1.7,0.3c0,0,0,0,0-0.1l-0.2-2.1
		C21.8,7.9,19.4,4.9,17.6,3.4z"/>
	<path class="st3" d="M24.4,13.3L24.4,13.3L24.4,13.3L24.4,13.3z"/>
	<path class="st0" d="M12.4,14.5L12.4,14.5c-1.7-2-2.1-4.1-2.1-5.7C10.2,8.9,10.2,9,10.1,9c-0.1,2.1,0.1,7.4,4.4,10.5l0,0l2.3-1.6
		C14.2,16.7,12.5,14.6,12.4,14.5z"/>
	<path class="st0" d="M9.2,26l-0.6-0.4c-2.3-1.2-3.5-2.9-3.6-3l0,0c-1.1-1.4-1.7-2.8-2-4c0,0.1,0,0.2,0,0.3c0.1,2.1,1.1,6.6,6.1,9.6
		l3.3-1.9c-1.2-0.1-2.3-0.4-3.2-0.8V26z"/>
	<path class="st3" d="M12.3,26.7L12.3,26.7L12.3,26.7z"/>
	<path class="st0" d="M13.9,45c2.9-1.8,3.8-5.5,2.3-8.8c0.2,0.6,0.2,1.1,0.2,1.8c0,3.7-3,6.7-6.7,6.7c-2.4,0-4.5-1.3-5.7-3.3
		c0.1,0.3,0.3,0.6,0.5,0.9C6.5,45.8,10.8,47,13.9,45z"/>
	<path class="st0" d="M26.9,7.5c0,0.1,0,0.1-0.1,0.2c0.7,2,2.9,9.5-0.9,15.6l0.4,2.7c2-2.2,2.9-5.7,2.9-6.1
		C30,15.4,28.1,10.2,26.9,7.5z"/>
	<path class="st0" d="M34.9,22.1c-0.1,0.1-0.2,0.1-0.2,0.1c-0.1,1.6-0.7,4.8-3.2,7l0.4,2.1C34.7,28.2,35,24.2,34.9,22.1z"/>
	<path class="st0" d="M27.6,47.7L27.6,47.7h-2c-2.8,5.5-8.2,9.7-8.2,9.7v0.1c0,0,0,0,0.1,0C23.8,54.3,27.6,47.8,27.6,47.7z"/>
	<polygon class="st3" points="27.7,47.7 27.6,47.7 27.6,47.8 	"/>
	<path class="st4" d="M10.8,34.8l-4.3,4.3c0.1,0.2,0.2,0.4,0.3,0.6l4.6-4.6C11.2,35,11,34.9,10.8,34.8z"/>
	<path class="st4" d="M9.7,34.6c-1.9,0-3.4,1.5-3.4,3.4c0,0.1,0,0.1,0,0.2l3.6-3.6C9.9,34.6,9.8,34.6,9.7,34.6z"/>
	<path class="st4" d="M9.7,41.4c1.9,0,3.4-1.5,3.4-3.4c0-0.6-0.2-1.2-0.5-1.7L8,40.9C8.6,41.2,9.1,41.4,9.7,41.4z"/>
	<path class="st4" d="M9.7,42.9c2.7,0,4.9-2.2,4.9-4.9s-2.2-4.9-4.9-4.9S4.8,35.3,4.8,38C4.9,40.7,7,42.9,9.7,42.9z M9.7,33.9
		c2.3,0,4.1,1.9,4.1,4.1c0,2.3-1.9,4.1-4.1,4.1c-2.3,0-4.1-1.9-4.1-4.1C5.6,35.7,7.4,33.9,9.7,33.9z"/>
	<path class="st2" d="M9.7,44.7c3.7,0,6.7-3,6.7-6.7c0-0.6-0.1-1.2-0.2-1.8c-0.8-2.8-3.4-4.9-6.4-4.9c-3.7,0-6.7,3-6.7,6.7
		C3,39.3,3.4,40.4,4,41.4C5.2,43.4,7.3,44.7,9.7,44.7z M9.7,33.1c2.7,0,4.9,2.2,4.9,4.9s-2.2,4.9-4.9,4.9S4.8,40.7,4.8,38
		C4.9,35.3,7,33.1,9.7,33.1z"/>
	<path class="st2" d="M36.1,18.7L35,19.9c-1.5,1.6-3.3,1.7-4.4,1.6c0.1-0.4,0.2-0.8,0.3-1.2l0,0l0,0c0.5-2.7,0.2-5.8-0.9-9.4
		c-1-3.4-2.4-5.8-2.4-5.9l-0.9-1.7L26,5.1c-0.7,2.2-1.5,4.3-2.2,5.7C21.6,2.6,16.2,0.5,16,0.4l-2.7-1L15,1.6
		c2.8,3.7-0.3,9.4-1.7,11.5C11.1,10.3,12,7,12.1,6.9l0.7-2.3l-2,1.5c-3.3,2.4-5,6.4-5,11.3c0,1.5,0.2,2.8,0.4,3.9
		c-2-2.6-1.7-5.3-1.7-5.4L3,15.4c-3.3,4.8-3.4,12.1-1.7,16.8l1.5-0.6C1.6,28.1,1.4,23,3,18.9c0-0.1,0.1-0.2,0.1-0.3
		c0.3,1.2,0.9,2.6,2,4l0,0c0.1,0.1,1.3,1.9,3.6,3L9.3,26l-0.1-0.2c0.9,0.4,2,0.7,3.2,0.8l0,0l0,0l0,0l0.1-1.6
		c-1.7-0.1-3.1-0.8-4.1-1.5C8.1,22.8,5.6,14.4,10.1,9c0.1-0.1,0.1-0.2,0.2-0.2c0,1.6,0.4,3.8,2.1,5.7l0,0c0.1,0.1,1.8,2.2,4.5,3.3
		l0,0l0.6-1.5c-1.3-0.5-2.3-1.3-3-2c0.5-0.8,1.5-2.4,2.3-4.3c0.9-2.2,1.2-4.2,0.9-6c0-0.2-0.1-0.5-0.1-0.7c1.8,1.5,4.2,4.5,5.1,10
		l0.4,2.1v0.2l0.9-1.7l0.2-0.3c0,0,0.1-0.1,0.2-0.3l0,0c0.4-0.8,1.5-2.9,2.4-5.6c0-0.1,0-0.1,0.1-0.2c1.2,2.7,3.1,7.9,2.3,12.4
		c-0.1,0.4-1,3.9-2.9,6.1l0,0l1.2,1.1c1.1-1.2,1.9-2.8,2.4-4.1c1,0.2,2.9,0.3,4.8-0.8c0.1,0,0.2-0.1,0.2-0.1c0.1,2.1-0.2,6.2-3,9.3
		l0,0l1.2,1.1c4.5-5,3.3-11.9,3.3-12.2L36.1,18.7z"/>
	<path class="st2" d="M27.6,47.7L27.6,47.7L27.6,47.7c-0.1,0.1-3.9,6.5-10.1,9.8c0,0,0,0-0.1,0c-3.5-2.1-5.8-4.6-7.2-6.3
		c-1.5-2-2.2-3.4-2.2-3.4l-1.5,0.7c0.1,0.3,2.8,6.4,10.5,10.7l0.4,0.2l0.4-0.2c7-3.5,11-10.4,11.2-10.7L27.6,47.7L27.6,47.7z"/>
	<path class="st2" d="M9.7,42.2c2.3,0,4.1-1.9,4.1-4.1c0-2.3-1.9-4.1-4.1-4.1c-2.3,0-4.1,1.9-4.1,4.1C5.6,40.3,7.4,42.2,9.7,42.2z
		 M12.7,36.4c0.3,0.5,0.5,1.1,0.5,1.7c0,1.9-1.5,3.4-3.4,3.4c-0.6,0-1.2-0.2-1.7-0.5L12.7,36.4z M6.3,38c0-1.9,1.5-3.4,3.4-3.4
		c0.1,0,0.1,0,0.2,0l-3.6,3.6C6.4,38.2,6.3,38.1,6.3,38z M6.5,39.1l4.3-4.3c0.2,0.1,0.4,0.2,0.6,0.3l-4.6,4.6
		C6.7,39.5,6.6,39.3,6.5,39.1z"/>
	<path class="st0" d="M31.9,38c0,3.7-3,6.7-6.7,6.7c-2.4,0-4.6-1.3-5.7-3.3c0.1,0.3,0.3,0.6,0.5,0.9c2.1,3.4,6.3,4.6,9.4,2.7
		c2.9-1.8,3.8-5.5,2.3-8.8C31.8,36.8,31.9,37.4,31.9,38z"/>
	<path class="st4" d="M25.2,42.9c2.7,0,4.9-2.2,4.9-4.9s-2.2-4.9-4.9-4.9s-4.9,2.2-4.9,4.9C20.4,40.7,22.6,42.9,25.2,42.9z
		 M25.2,33.9c2.3,0,4.1,1.9,4.1,4.1c0,2.3-1.9,4.1-4.1,4.1c-2.3,0-4.1-1.9-4.1-4.1C21.1,35.7,23,33.9,25.2,33.9z"/>
	<path class="st4" d="M25.2,34.6c-1.9,0-3.4,1.5-3.4,3.4c0,0.1,0,0.1,0,0.2l3.6-3.6C25.4,34.6,25.3,34.6,25.2,34.6z"/>
	<path class="st4" d="M26.3,34.8L22,39.1c0.1,0.2,0.2,0.4,0.3,0.6l4.6-4.6C26.7,35,26.5,34.9,26.3,34.8z"/>
	<path class="st4" d="M25.2,41.4c1.9,0,3.4-1.5,3.4-3.4c0-0.6-0.2-1.2-0.5-1.7l-4.6,4.6C24.1,41.2,24.6,41.4,25.2,41.4z"/>
	<path class="st2" d="M25.2,44.7c3.7,0,6.7-3,6.7-6.7c0-0.6-0.1-1.2-0.2-1.8c-0.8-2.8-3.4-4.9-6.4-4.9c-3.7,0-6.7,3-6.7,6.7
		c0,1.2,0.3,2.4,0.9,3.4C20.7,43.4,22.8,44.7,25.2,44.7z M25.2,33.1c2.7,0,4.9,2.2,4.9,4.9s-2.2,4.9-4.9,4.9s-4.9-2.2-4.9-4.9
		C20.4,35.3,22.6,33.1,25.2,33.1z"/>
	<path class="st2" d="M25.2,42.2c2.3,0,4.1-1.9,4.1-4.1c0-2.3-1.9-4.1-4.1-4.1c-2.3,0-4.1,1.9-4.1,4.1C21.1,40.3,23,42.2,25.2,42.2z
		 M28.2,36.4c0.3,0.5,0.5,1.1,0.5,1.7c0,1.9-1.5,3.4-3.4,3.4c-0.6,0-1.2-0.2-1.7-0.5L28.2,36.4z M21.9,38c0-1.9,1.5-3.4,3.4-3.4
		c0.1,0,0.1,0,0.2,0l-3.6,3.6C21.9,38.2,21.9,38.1,21.9,38z M22,39.1l4.3-4.3c0.2,0.1,0.4,0.2,0.6,0.3l-4.6,4.6
		C22.2,39.5,22.1,39.3,22,39.1z"/>
</g>
</svg>
