<?xml version="1.0" encoding="utf-8"?>
<!-- Generator: Adobe Illustrator 21.1.0, SVG Export Plug-In . SVG Version: 6.00 Build 0)  -->
<svg version="1.1" id="Layer_1" xmlns="http://www.w3.org/2000/svg" xmlns:xlink="http://www.w3.org/1999/xlink" x="0px" y="0px"
	 viewBox="0 0 312 72.4" style="enable-background:new 0 0 312 72.4;" xml:space="preserve">
<style type="text/css">
	.st0{fill:#73D7E6;}
</style>
<g>
	<path class="st0" d="M64.6,18.6h-7.8v21.8h7.9c7.1,0,10.7-3.8,10.7-11.3C75.3,22.1,71.7,18.6,64.6,18.6z M65.5,36.9h-5.4v-15h5.4
		c4.2,0,6.3,2.4,6.3,7.1C71.8,34.3,69.7,36.9,65.5,36.9z"/>
	<polygon class="st0" points="81,29.1 89.3,29.1 89.3,25.7 81,25.7 81,21.9 89.3,21.9 89.3,18.6 77.5,18.6 77.5,40.3 90.9,40.3 
		90.9,36.9 81,36.9 	"/>
	<polygon class="st0" points="211.8,29.1 220.1,29.1 220.1,25.7 211.8,25.7 211.8,21.9 220.1,21.9 220.1,18.6 208.4,18.6 
		208.4,40.3 221.8,40.3 221.8,36.9 211.8,36.9 	"/>
	<path class="st0" d="M101.9,27.2h-2.4c-1.9,0-2.9-0.9-2.9-2.8c0-1.6,1-2.5,2.9-2.5h8.1v-3.4H100c-4.4,0-6.7,1.9-6.7,5.8
		c0,4.2,2.2,6.3,6.7,6.3h2.4c2.5,0,3.7,1,3.7,3.1c0,2.2-1.2,3.2-3.7,3.2h-8.9v3.4h8.5c4.9,0,7.4-2.2,7.4-6.6
		C109.4,29.4,106.9,27.2,101.9,27.2z"/>
	<rect x="111.7" y="18.6" class="st0" width="3.4" height="21.8"/>
	<path class="st0" d="M129.8,33.5h4.8v0.8c-0.7,0.9-1.6,1.7-2.7,2.2c-1.1,0.6-2.2,0.8-3.5,0.8c-1.1,0-2.1-0.2-3.1-0.6
		c-1-0.4-1.8-1-2.5-1.7s-1.3-1.5-1.7-2.5c-0.4-1-0.6-2-0.6-3.1s0.2-2.1,0.6-3c0.4-1,1-1.8,1.7-2.5s1.5-1.3,2.5-1.7
		c1-0.4,2-0.6,3.1-0.6c0.5,0,1.1,0.1,1.6,0.2s1,0.2,1.4,0.5l0.6,0.3l1.8-2.8c-0.8-0.5-1.7-0.9-2.6-1.1c-0.9-0.2-1.9-0.3-2.8-0.3
		c-1.5,0-3,0.3-4.3,0.9c-1.4,0.6-2.6,1.4-3.6,2.4s-1.8,2.2-2.4,3.6s-0.9,2.8-0.9,4.4c0,1.5,0.3,3,0.9,4.3c0.6,1.4,1.4,2.6,2.4,3.6
		s2.2,1.8,3.6,2.4c1.4,0.6,2.8,0.9,4.3,0.9c1.1,0,2.2-0.2,3.3-0.5c1-0.3,2-0.8,2.9-1.4v5.8h3.4V30.1h-8.2V33.5z"/>
	<polygon class="st0" points="152.9,33.1 142,18.6 139.9,18.6 139.9,40.3 143.3,40.3 143.3,25.7 154.2,40.3 156.2,40.3 156.2,15.2 
		152.9,15.2 	"/>
	<polygon class="st0" points="171,15.2 167.6,15.2 167.6,40.3 181.1,40.3 181.1,36.9 171,36.9 	"/>
	<rect x="183.3" y="18.6" class="st0" width="3.4" height="21.8"/>
	<polygon class="st0" points="201.5,18.6 193.7,26.5 193.7,15.2 190.3,15.2 190.3,40.3 193.7,40.3 193.7,32.5 201.5,40.3 
		206.4,40.3 195.2,29.5 206.4,18.6 	"/>
	<polygon class="st0" points="241.2,30.9 233.9,16.7 230.3,16.7 230.3,39.7 233.9,39.7 233.9,24.1 240.2,36.3 242.1,36.3 
		248.5,24.1 248.5,44.3 252.1,44.3 252.1,16.7 248.5,16.7 	"/>
	<path class="st0" d="M253.2,40.6h4.1L259,37h13.3l4.2,8.1h4.1l-15-29.4L253.2,40.6z M270.6,33.4h-9.8l4.9-10.3L270.6,33.4z"/>
	<path class="st0" d="M287.7,16.7h-8.3v23h8.3c7.5,0,11.3-4,11.3-11.9C299,20.4,295.3,16.7,287.7,16.7z M288.7,36.1H283V20.3h5.7
		c4.5,0,6.7,2.5,6.7,7.5C295.4,33.4,293.2,36.1,288.7,36.1z"/>
	<path class="st0" d="M24.4,13.9L24.4,13.9L24.4,13.9L24.4,13.9z"/>
	<path class="st0" d="M12.3,27.3L12.3,27.3L12.3,27.3z"/>
	<polygon class="st0" points="27.7,48.3 27.6,48.3 27.6,48.4 	"/>
	<path class="st0" d="M9.7,45.3c3.7,0,6.7-3,6.7-6.7c0-0.6-0.1-1.2-0.2-1.8c-0.8-2.8-3.4-4.9-6.4-4.9c-3.7,0-6.7,3-6.7,6.7
		C3,39.9,3.4,41,4,42C5.2,44,7.3,45.3,9.7,45.3z M9.7,33.7c2.7,0,4.9,2.2,4.9,4.9s-2.2,4.9-4.9,4.9s-4.9-2.2-4.9-4.9
		C4.9,35.9,7,33.7,9.7,33.7z"/>
	<path class="st0" d="M36.1,19.3L35,20.5c-1.5,1.6-3.3,1.7-4.4,1.6c0.1-0.4,0.2-0.8,0.3-1.2l0,0l0,0c0.5-2.7,0.2-5.8-0.9-9.4
		c-1-3.4-2.4-5.8-2.4-5.9l-0.9-1.7L26,5.7c-0.7,2.2-1.5,4.3-2.2,5.7C21.6,3.2,16.2,1.1,16,1l-2.7-1L15,2.2c2.8,3.7-0.3,9.4-1.7,11.5
		c-2.2-2.8-1.3-6.1-1.2-6.2l0.7-2.3l-2,1.5c-3.3,2.4-5,6.4-5,11.3c0,1.5,0.2,2.8,0.4,3.9c-2-2.6-1.7-5.3-1.7-5.4L3,16
		c-3.3,4.8-3.4,12.1-1.7,16.8l1.5-0.6C1.6,28.7,1.4,23.6,3,19.5c0-0.1,0.1-0.2,0.1-0.3c0.3,1.2,0.9,2.6,2,4l0,0
		c0.1,0.1,1.3,1.9,3.6,3l0.6,0.4l-0.1-0.2c0.9,0.4,2,0.7,3.2,0.8l0,0l0,0l0,0l0.1-1.6c-1.7-0.1-3.1-0.8-4.1-1.5
		C8.1,23.4,5.6,15,10.1,9.6c0.1-0.1,0.1-0.2,0.2-0.2c0,1.6,0.4,3.8,2.1,5.7l0,0c0.1,0.1,1.8,2.2,4.5,3.3l0,0l0.6-1.5
		c-1.3-0.5-2.3-1.3-3-2c0.5-0.8,1.5-2.4,2.3-4.3c0.9-2.2,1.2-4.2,0.9-6c0-0.2-0.1-0.5-0.1-0.7c1.8,1.5,4.2,4.5,5.1,10l0.4,2.1v0.2
		l0.9-1.7l0.2-0.3c0,0,0.1-0.1,0.2-0.3l0,0c0.4-0.8,1.5-2.9,2.4-5.6c0-0.1,0-0.1,0.1-0.2c1.2,2.7,3.1,7.9,2.3,12.4
		c-0.1,0.4-1,3.9-2.9,6.1l0,0l1.2,1.1c1.1-1.2,1.9-2.8,2.4-4.1c1,0.2,2.9,0.3,4.8-0.8c0.1,0,0.2-0.1,0.2-0.1c0.1,2.1-0.2,6.2-3,9.3
		l0,0l1.2,1.1c4.5-5,3.3-11.9,3.3-12.2L36.1,19.3z"/>
	<path class="st0" d="M27.6,48.3L27.6,48.3L27.6,48.3c-0.1,0.1-3.9,6.5-10.1,9.8c0,0,0,0-0.1,0c-3.5-2.1-5.8-4.6-7.2-6.3
		c-1.5-2-2.2-3.4-2.2-3.4l-1.5,0.7c0.1,0.3,2.8,6.4,10.5,10.7l0.4,0.2l0.4-0.2c7-3.5,11-10.4,11.2-10.7L27.6,48.3L27.6,48.3z"/>
	<path class="st0" d="M9.7,42.8c2.3,0,4.1-1.9,4.1-4.1c0-2.3-1.9-4.1-4.1-4.1c-2.3,0-4.1,1.9-4.1,4.1C5.6,40.9,7.4,42.8,9.7,42.8z
		 M12.7,37c0.3,0.5,0.5,1.1,0.5,1.7c0,1.9-1.5,3.4-3.4,3.4c-0.6,0-1.2-0.2-1.7-0.5L12.7,37z M6.3,38.6c0-1.9,1.5-3.4,3.4-3.4
		c0.1,0,0.1,0,0.2,0l-3.6,3.6C6.4,38.8,6.3,38.7,6.3,38.6z M6.5,39.7l4.3-4.3c0.2,0.1,0.4,0.2,0.6,0.3l-4.6,4.6
		C6.7,40.1,6.6,39.9,6.5,39.7z"/>
	<path class="st0" d="M25.2,45.3c3.7,0,6.7-3,6.7-6.7c0-0.6-0.1-1.2-0.2-1.8c-0.8-2.8-3.4-4.9-6.4-4.9c-3.7,0-6.7,3-6.7,6.7
		c0,1.2,0.3,2.4,0.9,3.4C20.7,44,22.8,45.3,25.2,45.3z M25.2,33.7c2.7,0,4.9,2.2,4.9,4.9s-2.2,4.9-4.9,4.9s-4.9-2.2-4.9-4.9
		C20.4,35.9,22.6,33.7,25.2,33.7z"/>
	<path class="st0" d="M25.2,42.8c2.3,0,4.1-1.9,4.1-4.1c0-2.3-1.9-4.1-4.1-4.1c-2.3,0-4.1,1.9-4.1,4.1C21.1,40.9,23,42.8,25.2,42.8z
		 M28.2,37c0.3,0.5,0.5,1.1,0.5,1.7c0,1.9-1.5,3.4-3.4,3.4c-0.6,0-1.2-0.2-1.7-0.5L28.2,37z M21.9,38.6c0-1.9,1.5-3.4,3.4-3.4
		c0.1,0,0.1,0,0.2,0l-3.6,3.6C21.9,38.8,21.9,38.7,21.9,38.6z M22,39.7l4.3-4.3c0.2,0.1,0.4,0.2,0.6,0.3l-4.6,4.6
		C22.2,40.1,22.1,39.9,22,39.7z"/>
</g>
<g>
	<path class="st0" d="M233.8,62.7l-3.2,0.1c-1.9,0-3.2-0.1-3.9-0.2c-0.7-0.1-1.3-0.3-1.8-0.5c-0.5-0.2-0.9-0.4-1.3-0.7
		c-0.8-0.6-1.1-1.4-1.1-2.3c0-0.3,0.2-0.7,0.5-1.3c0.4-0.6,1-1.3,1.8-2.1c0.9-0.8,1.9-1.5,3.1-2.3c1.2-0.7,2.8-1.3,4.7-1.9
		c1.9-0.5,4.1-0.8,6.3-0.9c0.8,0,1.7,0.1,2.6,0.3c0.9,0.2,1.6,0.4,2.2,0.7s1.1,0.7,1.6,1.2c0.5,0.5,0.7,1.2,0.7,1.9
		c0,0.6-0.6,1.2-1.7,1.9c-1.2,0.7-2.9,1.1-4.9,1.1c-2,0-3.1-0.1-3.1-0.4c0-0.2,0.6-0.5,1.8-0.8c1.2-0.3,2.4-0.7,3.6-1.1
		c1.2-0.4,1.8-0.9,1.8-1.4c0-0.3-0.5-0.4-1.4-0.4c-6,0-11.1,1.6-15.4,4.7c-0.8,0.6-1.2,1.1-1.2,1.5c0,0.7,2.1,1,6.4,1
		c3.9,0,5.8,1.1,5.8,3.1c0,1.4-1,2.8-2.9,4.1c-2,1.3-4.3,2.3-6.9,3s-5.2,1.1-7.5,1.1c-1.1,0-2.3-0.3-3.5-0.9
		c-1.2-0.6-1.8-1.3-1.8-2.1c0-0.3,0.2-0.4,0.7-0.4c2.4-0.3,4-0.6,4.7-0.9c0.2,0,0.3-0.1,0.4-0.1c0.1,0,0.2,0,0.2,0.1
		c0,0.1-0.1,0.2-0.4,0.4c-0.2,0.1-0.5,0.2-0.7,0.3c-0.6,0.2-0.9,0.3-0.9,0.4c0,0.1,0.2,0.1,0.6,0.1c0.4,0,1.5-0.2,3.1-0.5
		c1.7-0.3,3.5-0.8,5.4-1.3c1.9-0.5,3.6-1.2,5.1-1.9c1.5-0.8,2.2-1.5,2.2-2.2C235.4,63,234.9,62.7,233.8,62.7z"/>
	<path class="st0" d="M241.6,71c-1.6,0-2.4-1-2.4-2.9c0-1.2,0.5-2.5,1.6-3.9c1.1-1.4,2.3-2.5,3.8-3.4c1.4-0.9,2.7-1.3,3.8-1.3
		c0.5,0,1,0.2,1.4,0.6s0.6,0.8,0.6,1.1c0,0.7-0.5,1.5-1.5,2.3s-2,1.5-3.1,2.1c-1.1,0.5-1.8,0.8-2.1,0.8s-0.6-0.2-0.8-0.5
		c-0.1-0.1-0.2-0.1-0.3-0.1s-0.4,0.3-0.7,0.8c-0.3,0.5-0.5,1-0.5,1.3s0.1,0.6,0.4,0.6c1.6,0,3.3-0.5,5.1-1.4
		c1.8-0.9,4.4-2.5,7.6-4.9c0.2-0.2,0.6-0.4,1-0.7c0.5-0.3,0.7-0.5,0.8-0.6c0.2,0.1,0.3,0.3,0.3,0.5c0,0.2-0.1,0.4-0.3,0.6
		c-1,1-2.4,2.2-4,3.5c-1.6,1.3-3.5,2.5-5.7,3.6C244.6,70.4,242.9,71,241.6,71z M248.2,61c-0.5,0-1.4,0.6-2.7,1.7s-1.9,1.8-1.9,2
		c0,0,0,0.1,0.1,0.1c0.5,0,1.4-0.5,2.7-1.5s2-1.7,2-2.1C248.3,61.1,248.3,61,248.2,61z"/>
	<path class="st0" d="M255.3,69.1l0.2-2c0-0.1,0-0.1,0-0.1s-0.1,0-0.2,0.1c-0.3,0.3-0.6,0.6-1,1.1c-0.4,0.4-1.1,1-2.1,1.7
		c-1,0.7-1.8,1.1-2.4,1.1c-0.1,0-0.2-0.1-0.4-0.1c-0.2-0.1-0.4-0.2-0.6-0.5s-0.4-0.7-0.4-1.2c0-0.5,0.4-1.4,1.2-2.5
		c0.8-1.1,1.8-2.2,2.9-3.3s2.4-2,3.8-2.8c1.4-0.8,2.6-1.2,3.6-1.2c0.4,0,0.7,0.3,0.9,0.8c0.2-0.2,0.4-0.3,0.6-0.3
		c0.2,0,0.4,0.1,0.6,0.4c0.1,0,0.2,0.1,0.4,0.2c0.1,0.1,0.2,0.3,0.2,0.5c0,0.2-0.1,0.4-0.4,0.7c-0.4,0.5-0.9,1.1-1.5,1.8
		c-0.6,0.7-1,1.2-1.2,1.5c-0.2,0.3-0.5,0.6-0.8,1c-0.5,0.6-0.7,1.2-0.7,1.5c2.1-1,5.4-3.2,10-6.5c0.2,0.1,0.3,0.3,0.3,0.5
		c0,0.2-0.1,0.4-0.2,0.5c-0.2,0.1-0.4,0.3-0.6,0.5c-0.2,0.2-0.7,0.6-1.4,1.2c-0.7,0.6-1.4,1.2-2,1.7c-0.7,0.5-1.4,1.2-2.2,1.8
		c-0.8,0.7-1.6,1.2-2.2,1.7c-1.6,1.1-2.6,1.7-3,1.7s-0.7-0.1-0.8-0.4C255.4,70.2,255.3,69.7,255.3,69.1z M252.2,67.8
		c0.2,0,1-0.5,2.3-1.5c1.3-1,2.5-2,3.6-3l1.7-1.5c0.1-0.1,0.1-0.1,0.1-0.2s0,0-0.1,0c-0.8,0-1.8,0.5-3.1,1.3
		c-1.3,0.9-2.4,1.9-3.3,2.9C252.6,66.7,252.1,67.4,252.2,67.8C252.1,67.8,252.1,67.8,252.2,67.8z"/>
	<path class="st0" d="M276.1,56.1l1.6,0c2,0,3.5,0.3,4.5,0.9c0.5,0.1,0.7,0.3,0.7,0.6c0,0.2-0.2,0.3-0.6,0.3
		c-0.4,0.1-1.8,0.2-4.2,0.5c-2.4,0.3-4,0.4-4.9,0.4c-0.4,0-1.3,0.7-2.7,2c-1.4,1.3-2.8,2.8-4,4.4c-1.3,1.6-1.9,2.7-1.9,3.4
		c0,0.1,0.1,0.2,0.2,0.3s0.2,0.1,0.4,0.1c0.2,0,0.4-0.1,0.7-0.2c3.9-2.3,7.7-4.8,11.4-7.6c0.2,0.1,0.3,0.3,0.3,0.5
		c0,0.2-0.1,0.4-0.3,0.6c-0.2,0.2-0.5,0.5-0.9,0.9c-0.4,0.4-1.2,1-2.2,2c-1.1,1-2.1,1.8-3.1,2.6c-2.6,2.1-4.4,3.3-5.5,3.7
		c-0.4,0.1-0.8,0.2-1.3,0.2c-0.5,0-1-0.3-1.4-0.8c-0.4-0.5-0.6-1.2-0.6-2.1s0.6-2.2,1.7-3.8c1.1-1.7,2.7-3.4,4.7-5.1
		c0.2-0.1,0.3-0.3,0.3-0.4s-0.2-0.2-0.7-0.2l-2,0.1c-2.7,0-4.2-0.3-4.2-0.9c-0.6-0.1-1-0.3-1-0.6c0-0.1,0-0.1,0.1-0.1
		c0.1,0,0.2,0,0.2,0c0.1,0,0.2,0,0.3,0c0.1,0,1.3-0.2,3.4-0.5c2.1-0.3,4.6-0.6,7.3-0.8l2.1-2.9c0.1-0.2,0.6-0.4,1.3-0.4
		s1.1,0.2,1.1,0.5c0,0.1-0.1,0.3-0.2,0.6l-0.8,1.1c-0.1,0.3-0.2,0.6-0.2,0.7C275.7,56,275.9,56.1,276.1,56.1z"/>
	<path class="st0" d="M285.9,56.1l1.6,0c2,0,3.5,0.3,4.5,0.9c0.5,0.1,0.7,0.3,0.7,0.6c0,0.2-0.2,0.3-0.6,0.3
		c-0.4,0.1-1.8,0.2-4.2,0.5c-2.4,0.3-4,0.4-4.9,0.4c-0.4,0-1.3,0.7-2.7,2c-1.4,1.3-2.8,2.8-4,4.4c-1.3,1.6-1.9,2.7-1.9,3.4
		c0,0.1,0.1,0.2,0.2,0.3s0.2,0.1,0.4,0.1c0.2,0,0.4-0.1,0.7-0.2c3.9-2.3,7.7-4.8,11.4-7.6c0.2,0.1,0.3,0.3,0.3,0.5
		c0,0.2-0.1,0.4-0.3,0.6c-0.2,0.2-0.5,0.5-0.9,0.9c-0.4,0.4-1.2,1-2.2,2c-1.1,1-2.1,1.8-3.1,2.6c-2.6,2.1-4.4,3.3-5.5,3.7
		c-0.4,0.1-0.8,0.2-1.3,0.2c-0.5,0-1-0.3-1.4-0.8c-0.4-0.5-0.6-1.2-0.6-2.1s0.6-2.2,1.7-3.8c1.1-1.7,2.7-3.4,4.7-5.1
		c0.2-0.1,0.3-0.3,0.3-0.4s-0.2-0.2-0.7-0.2l-2,0.1c-2.7,0-4.2-0.3-4.2-0.9c-0.6-0.1-1-0.3-1-0.6c0-0.1,0-0.1,0.1-0.1
		c0.1,0,0.2,0,0.2,0c0.1,0,0.2,0,0.3,0c0.1,0,1.3-0.2,3.4-0.5c2.1-0.3,4.6-0.6,7.3-0.8l2.1-2.9c0.1-0.2,0.6-0.4,1.3-0.4
		s1.1,0.2,1.1,0.5c0,0.1-0.1,0.3-0.2,0.6l-0.8,1.1c-0.1,0.3-0.2,0.6-0.2,0.7C285.4,56,285.6,56.1,285.9,56.1z"/>
	<path class="st0" d="M285.5,68.4c0.7,0,2-0.6,4-1.8c2-1.2,3.8-2.4,5.5-3.7l2.5-1.8c0.2,0.1,0.3,0.3,0.3,0.5c0,0.2-0.1,0.4-0.3,0.6
		c-0.2,0.2-0.5,0.5-0.9,0.8c-0.4,0.4-1.1,1-2.2,1.9c-1.1,0.9-2.1,1.7-3,2.5c-2.4,2-4.2,3.1-5.4,3.5c-0.4,0.1-0.8,0.2-1.1,0.2
		c-0.4,0-0.7,0-0.9-0.1c-0.2-0.1-0.5-0.2-0.7-0.4c-0.5-0.5-0.8-1.5-0.8-3c0-0.4,0.2-1.1,0.6-2c0.4-0.9,1-2,1.8-3.2s1.9-2.5,3-3.8
		c1.1-1.3,2.6-2.5,4.4-3.8c1.8-1.3,3.7-2.3,5.7-3.1c0.3-0.1,0.6-0.2,0.8-0.2s0.5,0.1,0.7,0.3c0.2,0.2,0.4,0.4,0.4,0.7l0.2,0.3
		c0,0.5-0.7,1.5-2.2,3.1c-1.5,1.7-3.2,3.3-5.2,4.8c-2,1.5-3.8,2.8-5.5,3.9c-1.4,0.9-2.1,1.9-2.1,2.9C285,68,285.1,68.4,285.5,68.4z
		 M288.3,61.9c0.5,0,2.1-1.3,4.7-3.8c2.6-2.5,3.9-4,3.9-4.2l0-0.1l-0.5,0.2c-1.1,0.7-2.5,1.9-4.3,3.6c-1.8,1.7-3,3-3.7,4
		C288.2,61.7,288.2,61.8,288.3,61.9C288.2,61.9,288.2,61.9,288.3,61.9z"/>
	<path class="st0" d="M294.5,71c-1.6,0-2.4-1-2.4-2.9c0-1.2,0.5-2.5,1.6-3.9c1.1-1.4,2.3-2.5,3.8-3.4c1.4-0.9,2.7-1.3,3.8-1.3
		c0.5,0,1,0.2,1.4,0.6s0.6,0.8,0.6,1.1c0,0.7-0.5,1.5-1.5,2.3s-2,1.5-3.1,2.1c-1.1,0.5-1.8,0.8-2.1,0.8s-0.6-0.2-0.8-0.5
		c-0.1-0.1-0.2-0.1-0.3-0.1s-0.4,0.3-0.7,0.8c-0.3,0.5-0.5,1-0.5,1.3s0.1,0.6,0.4,0.6c1.6,0,3.3-0.5,5.1-1.4
		c1.8-0.9,4.4-2.5,7.6-4.9c0.2-0.2,0.6-0.4,1-0.7c0.5-0.3,0.7-0.5,0.8-0.6c0.2,0.1,0.3,0.3,0.3,0.5c0,0.2-0.1,0.4-0.3,0.6
		c-1,1-2.4,2.2-4,3.5c-1.6,1.3-3.5,2.5-5.7,3.6C297.6,70.4,295.9,71,294.5,71z M301.1,61c-0.5,0-1.4,0.6-2.7,1.7s-1.9,1.8-1.9,2
		c0,0,0,0.1,0.1,0.1c0.5,0,1.4-0.5,2.7-1.5s2-1.7,2-2.1C301.3,61.1,301.3,61,301.1,61z"/>
</g>
</svg>
