<?xml version="1.0" encoding="utf-8"?>
<!-- Generator: Adobe Illustrator 21.1.0, SVG Export Plug-In . SVG Version: 6.00 Build 0)  -->
<svg version="1.1" id="Layer_1" xmlns="http://www.w3.org/2000/svg" xmlns:xlink="http://www.w3.org/1999/xlink" x="0px" y="0px"
	 viewBox="0 0 89 60" style="enable-background:new 0 0 89 60;" xml:space="preserve">
<style type="text/css">
	.st0{fill:none;}
	.st1{fill:#664FC9;}
	.st2{fill:#1E252B;}
	.st3{fill:#E0DCF4;}
</style>
<g>
	<path class="st0" d="M47.7,28.4l12.4,29.5c10.2-0.3,19.1-4.1,26.4-11.1L74.2,17.3L47.7,28.4z M79.7,35.1l4.5,11.2
		c-6.4,6.2-14,9.3-22.9,9.3l-7.7-18.8c1,0.3,1.8,0.6,2.4,0.7c2,0.6,3.5-2.7,5.9-2.7c0.1,0,0.2,0,0.3,0l2.5-2.1l8.6,3.1
		c0.3-0.2,0.7-0.3,1.2-0.5C75.6,35.1,77.6,35,79.7,35.1z"/>
	<path class="st0" d="M26.3,33.4l-1.8-0.3l1.7-10.7l-11.7-4.8L2.4,47.4C9.8,54.3,18.8,58,29,58.1l12-29.6l-13.1-5.3L26.3,33.4z
		 M33.1,37.8c0.6-0.2,1.5-0.4,2.4-0.7l-7.7,18.8c-8.9,0-16.5-3.1-22.9-9.3l4.5-11.2c2.1,0,4.1,0,5,0.2c1.5,0.3,2,1.1,2.9,1.6
		l0.3-0.9l7.6-0.8c0.6-0.3,1.3-0.4,1.9-0.4C29.6,35,31.1,38.4,33.1,37.8z"/>
	<polygon class="st1" points="35.2,17.2 43.1,15.9 47.3,19 48.6,17.9 29.5,2.1 7.5,11.8 8.5,13.1 13.5,11.5 20.6,15.1 28.3,13.7 	
		"/>
	<path class="st1" d="M25.3,35.5l0.9-0.1l5.1,7.7l-4.5,9.5l-6.5,1.8L13.8,48l3.5-10.8c-0.8-0.5-1.4-1.3-2.9-1.6c-1-0.2-3-0.3-5-0.2
		L4.9,46.6c6.4,6.2,14,9.3,22.9,9.3L35.5,37c-0.9,0.3-1.8,0.6-2.4,0.7c-2,0.6-3.5-2.7-5.9-2.7C26.6,35,25.9,35.2,25.3,35.5z"/>
	<path class="st1" d="M74.8,36.3L76,46.6L68.6,53L60,49.5l-1.9-11.4l4.1-3.3c-0.1,0-0.2,0-0.3,0c-2.4,0-3.9,3.3-5.9,2.7
		c-0.6-0.2-1.4-0.5-2.4-0.7l7.7,18.8c8.9,0,16.5-3.1,22.9-9.3l-4.5-11.2c-2.1,0-4.1,0-5,0.2c-0.5,0.1-0.9,0.3-1.2,0.5L74.8,36.3z"/>
	<path class="st2" d="M75.2,14.9L45.3,27.4L59,59.8h0.6c11.1-0.2,20.8-4.3,28.8-12.1l0.4-0.4L75.2,14.9z M60.2,57.9L47.7,28.4
		l26.4-11.1l12.4,29.5C79.3,53.9,70.4,57.6,60.2,57.9z"/>
	<path class="st2" d="M29,16.2l5.9,3l7.7-1.3l4.7,3.4l4.3-3.2L29.8,0L4.7,11l3.1,4.2l5.6-1.8l6.9,3.6l6.9-1.2l-0.8,4.8l-13.1-5.3
		L0.2,47.8l0.5,0.4C8.7,56,18.4,59.9,29.6,60h0.6l13.2-32.6l-15.2-6.2L29,16.2z M20.6,15.1l-7.1-3.6l-5,1.6l-1-1.3l22-9.6L48.6,18
		l-1.3,1l-4.2-3l-7.8,1.3l-6.9-3.5L20.6,15.1z M41,28.5L29,58.1C18.8,58,9.8,54.3,2.4,47.4l12.1-29.7l11.7,4.8l-1.7,10.7l1.8,0.3
		l1.6-10.3L41,28.5z"/>
	<path class="st3" d="M68.2,50.9l5.8-5l-1-8.2l-8-2.9l-5,4.1l1.5,9.4L68.2,50.9z M62.5,38.7l4.5,1.7l3.1-2l1,1.6l-3,1.9l0.7,5.8
		L67,47.9l-0.7-5.8l-4.4-1.6L62.5,38.7z"/>
	<path class="st2" d="M60,49.5l8.6,3.5l7.4-6.4l-1.2-10.4l-1.4-0.5l-8.6-3.1l-2.5,2.1L58.2,38L60,49.5z M65.1,34.8l8,2.9l1,8.2
		l-5.8,5l-6.5-2.7l-1.5-9.4L65.1,34.8z"/>
	<polygon class="st2" points="67,47.9 68.8,47.7 68.1,41.9 71.2,40 70.2,38.4 67,40.4 62.5,38.7 61.8,40.5 66.3,42.1 	"/>
	<path class="st3" d="M20.8,52.3l4.6-1.3l3.7-7.8l-3.9-5.9L19.1,38L16,47.5L20.8,52.3z M21,39.2l2.8,4h3.1V45h-2.7l-1.6,5.3
		l-1.8-0.5l1.7-5.4l-2.9-4.2L21,39.2z"/>
	<path class="st2" d="M20.3,54.4l6.5-1.8l4.5-9.5l-5.1-7.7l-0.9,0.1l-7.6,0.8l-0.3,0.9L13.8,48L20.3,54.4z M19.1,38l6.2-0.7l3.9,5.9
		L25.4,51l-4.6,1.3l-4.9-4.8L19.1,38z"/>
	<polygon class="st2" points="20.7,49.8 22.5,50.4 24.1,45.1 26.8,45.1 26.8,43.2 23.8,43.2 21,39.2 19.5,40.3 22.4,44.4 	"/>
</g>
</svg>
