<?xml version="1.0" encoding="utf-8"?>
<!-- Generator: Adobe Illustrator 21.1.0, SVG Export Plug-In . SVG Version: 6.00 Build 0)  -->
<svg version="1.1" id="Layer_1" xmlns="http://www.w3.org/2000/svg" xmlns:xlink="http://www.w3.org/1999/xlink" x="0px" y="0px"
	 viewBox="0 0 65 93" style="enable-background:new 0 0 65 93;" xml:space="preserve">
<style type="text/css">
	.st0{fill:#5B49C4;}
	.st1{fill:#1E252B;}
</style>
<g>
	<path class="st0" d="M59.7,25c-3.8-5.5-10.2-7.8-16.4-5.9c-2.2,0.7-4.2,2-6.1,3.9c-0.9,0.9-1.9,1.8-2.8,2.6c-0.5,0.4-1,0.9-1.5,1.3
		l-0.7,0.6l-0.6-0.6c-0.5-0.5-1-1-1.5-1.6c-0.8-0.9-1.7-1.7-2.5-2.6c-2.9-2.9-6.6-4.4-10.3-4.4c-3,0-6,1-8.4,2.9
		c-5.5,4.3-7.6,10.2-6.4,17.4c0.6,3.4,2.3,6.6,5.3,9.7c3.1,3.2,6.2,6.4,9.2,9.6c1.5,1.6,3.1,3.2,4.6,4.8l10.8,11.2
		c0.6-0.7,1.3-1.3,2-2l0.1-0.1c7.6-7.9,15.5-16.1,23.3-24.2C63.7,41.3,64.5,32,59.7,25z"/>
	<path class="st1" d="M61.2,23.9c-4.3-6.2-11.5-8.8-18.5-6.6c-2.5,0.8-4.8,2.2-6.9,4.3c-0.9,0.9-1.8,1.7-2.7,2.6
		c-0.3,0.2-0.5,0.5-0.8,0.7c-0.3-0.3-0.6-0.6-0.9-1c-0.8-0.9-1.7-1.8-2.5-2.6C23,15.5,14,14.9,7.7,19.8c-6,4.7-8.4,11.1-7,19.1
		c0.6,3.8,2.6,7.3,5.8,10.7c3.1,3.1,6.2,6.4,9.2,9.5c1.5,1.6,3.1,3.2,4.6,4.8l12.2,12.6l0.7-0.7c0.8-0.9,1.6-1.7,2.5-2.5l0.2-0.2
		c7.6-7.9,15.5-16.1,23.3-24.2C65.7,41.9,66.5,31.7,61.2,23.9z M34.4,71.9c-0.7,0.6-1.3,1.3-2,2L21.6,62.6c-1.5-1.6-3.1-3.2-4.6-4.8
		c-3-3.1-6.1-6.4-9.2-9.6c-3-3.1-4.8-6.3-5.3-9.7c-1.2-7.1,0.9-13,6.4-17.3c2.5-1.9,5.4-2.9,8.4-2.9c3.7,0,7.4,1.4,10.2,4.3
		c0.9,0.9,1.7,1.7,2.5,2.6c0.5,0.6,1.1,1.1,1.5,1.6l0.6,0.6l0.7-0.6c0.5-0.4,1-0.9,1.5-1.3c0.9-0.8,1.9-1.7,2.8-2.6
		c1.9-1.9,3.9-3.1,6.2-3.8c6.2-2,12.6,0.3,16.4,5.9c4.9,7,4.1,16.3-1.9,22.6C50,55.7,42.1,63.9,34.4,71.9L34.4,71.9z"/>
</g>
</svg>
