<?xml version="1.0" encoding="utf-8"?>
<!-- Generator: Adobe Illustrator 21.1.0, SVG Export Plug-In . SVG Version: 6.00 Build 0)  -->
<svg version="1.1" id="Layer_1" xmlns="http://www.w3.org/2000/svg" xmlns:xlink="http://www.w3.org/1999/xlink" x="0px" y="0px"
	 viewBox="0 0 200 200" style="enable-background:new 0 0 200 200;" xml:space="preserve">
<style type="text/css">
	.st0{fill:#FFFFFF;}
</style>
<path class="st0" d="M86.9,98.2c3.5-6.4,7.1-13,9.4-21.3c2.8-9.3,3.2-16.5,1.5-22.1c-1.6-5.6-5.5-9.3-11.4-11.1
	c-14.5-4.2-32.6,0-39.6,24.3c-5.4,18.4-6.7,32.4-7.7,41.6c-0.4,3.9-0.8,7-1.2,9.5c-0.3,0.9-0.4,1.9-0.6,2.8
	c-1.9,8.1-5.1,22.5,7.1,28.8c1.3,0.7,2.7,1.2,4.3,1.6c5.4,1.5,9.9,1.2,13.8-1.1c5.9-3.5,10.1-11.5,13-25
	C78.1,114.4,82.6,106,86.9,98.2z M85.1,48.6c1.1,0.3,2,0.6,2.8,1c2.8,1.4,4.4,3.5,5.2,6.6c1.3,4.6,0.7,10.9-1.6,19.4
	c-1.4,4.6-3.1,8.7-5.1,12.6c-0.8-10.7-5.4-21.1-6.9-24.2L81,59c0.4-1.2-0.5-2.7-1.7-3.1c-1.2-0.4-2.7,0.5-3.1,1.7l-1.5,4.8
	C62.4,68.2,53.7,75.4,48,82c0.8-3.9,2-8.2,3.3-12.7C53.6,62.8,61.6,41.8,85.1,48.6z M60.1,147.2c-2.6,1.5-5.8,1.7-9.8,0.7
	c-11.7-3.4-10.5-13.1-7.8-24.7c0.2-1.1,0.4-2,0.7-2.9c0.5-2.6,0.9-5.7,1.2-9.9c0.4-3.9,0.9-8.6,1.7-14c1.8-6.3,10.3-19,30.1-28.7
	c2.5,5.9,9,22.4,3.8,33.7l0,0c-3.5,6.8-6.9,14.2-8.9,24C68.1,137.3,64.6,144.4,60.1,147.2z M166.6,75.9c-2.1-8.7-8.1-14.7-11.5-17.3
	c-4.8-3.9-10.1-4.8-15.6-2.9c-5.5,1.9-11,6.5-17,14.1c-5.3,6.7-8.6,13.5-12,20c-4,8.2-8.2,16.6-16.3,25.6c-9.4,10.2-13.5,18.2-13,25
	c0.3,4.5,2.7,8.4,7,11.9c1.3,1.1,2.5,1.9,3.8,2.6c12.2,6.3,22-4.7,27.7-10.8c0.7-0.9,1.4-1.5,1.9-2.1c1.7-1.8,4.1-3.9,7.1-6.5
	c7-6,17.7-15.4,29.5-30.3C166.1,95,169,85.4,166.6,75.9z M125.5,131.5c-3.1,2.7-5.4,4.8-7.4,6.7c-0.6,0.7-1.3,1.4-2,2.3
	c-7.8,8.7-15.2,15.4-24.7,7.8c-3.3-2.7-5.1-5.3-5.1-8.4c-0.3-5.3,3.4-12.2,11.7-21.4c6.7-7.4,11-14.5,14.5-21.2l0,0
	c6-10.9,23.3-15.2,29.6-16.5c3.5,21.8-2,36.1-6.1,41.2C132,125.8,128.5,129,125.5,131.5z M154.2,101.9c-2.9,3.6-5.8,7.1-8.5,10
	c2.3-8.5,3-19.7,0.6-33.1l3.1-4c0.8-1.1,0.7-2.5-0.4-3.5c-1.1-0.8-2.5-0.7-3.5,0.4l-3.3,4c-3.4,0.5-14.4,2.7-23.7,8.4
	c2-3.9,4.4-7.6,7.4-11.4c5.3-6.7,10.4-10.9,14.8-12.6c3-1.1,5.8-0.9,8.4,0.4c0.8,0.4,1.5,1,2.4,1.7c2.9,2.3,8,7.2,9.7,14.7
	C163.7,84.9,161.2,93.3,154.2,101.9z"/>
</svg>
