<?xml version="1.0" encoding="utf-8"?>
<!-- Generator: Adobe Illustrator 21.1.0, SVG Export Plug-In . SVG Version: 6.00 Build 0)  -->
<svg version="1.1" id="Layer_1" xmlns="http://www.w3.org/2000/svg" xmlns:xlink="http://www.w3.org/1999/xlink" x="0px" y="0px"
	 viewBox="0 0 200 200" style="enable-background:new 0 0 200 200;" xml:space="preserve">
<style type="text/css">
	.st0{fill:#FFFFFF;}
</style>
<path class="st0" d="M157.2,155.8L137.8,43.9l0,0c0-0.2-0.2-0.4-0.2-0.5l0,0c-0.2-0.2-0.2-0.4-0.4-0.4c-24.3-20-60.5-19.3-84,1.8
	c-23.6,20.9-28.3,56.5-11.2,83c0.2,0.2,0.2,0.4,0.4,0.4c0,0,0,0,0.2,0c0.2,0.2,0.4,0.2,0.5,0.4l0,0l109.8,31.1
	c-1.4,2.9-1.1,6.5,1.1,9.2c1.4,1.6,3.4,2.5,5.6,2.7c0.2,0,0.4,0,0.5,0c2,0,4-0.7,5.4-2c1.6-1.4,2.5-3.4,2.7-5.6
	c0.2-2.2-0.5-4.3-2-5.9C163.9,155.3,160.3,154.6,157.2,155.8z M57,48.6c32.6,2.5,49.9,19.4,55.6,26.1c-8.5-2.7-18.7-0.5-26.6,6.5
	c-7.7,7-11.2,17.1-9,25.9C71,101.1,55.7,82.1,57,48.6z M117.8,75.6C117.6,75.6,117.6,75.4,117.8,75.6c-3.1-8.1-0.5-17.5,6.8-24.1
	c2.9-2.5,6.3-4.3,9.9-5.2l17.3,99l-32.8-66.8l0,0l0,0c-0.4-0.7-0.7-1.3-1.1-2C118,75.9,117.8,75.8,117.8,75.6z M82.3,111.4
	c-4.9-8.5-2.3-20,6.1-27.5c8.3-7.4,20-8.8,27.7-3.4l36.2,73.8L82.3,111.4z M79.8,114.1L79.8,114.1C80,114.1,80,114.1,79.8,114.1
	C80,114.1,80,114.1,79.8,114.1l64.1,39.2l-98.1-27.7c1.3-3.6,3.4-6.8,6.3-9.4C60.6,108.7,71.7,107.8,79.8,114.1z M132,43.4
	c-3.6,1.1-6.8,2.9-9.7,5.4c-6.5,5.8-9.7,13.3-9.4,20.7c-7.9-8.1-25-21.8-54.7-24.3C79.5,28.2,109.9,27.3,132,43.4z M53.4,49.5
	c-0.9,30.1,11,48.6,18.2,57.2c-7.4-1.1-15.3,1.3-21.8,7c-2.9,2.5-5,5.6-6.5,9C29.8,99,33.9,68.7,53.4,49.5z M163.2,166.8
	c-0.9,0.7-2.2,1.3-3.2,1.1c-1.3,0-2.3-0.5-3.1-1.4c-1.6-1.8-1.4-4.7,0.4-6.5c0.9-0.7,2-1.1,3.1-1.1c1.3,0,2.5,0.5,3.4,1.4
	c0.7,0.9,1.3,2,1.1,3.2C164.6,164.8,164.1,165.9,163.2,166.8z"/>
</svg>
