<?xml version="1.0" encoding="utf-8"?>
<!-- Generator: Adobe Illustrator 21.1.0, SVG Export Plug-In . SVG Version: 6.00 Build 0)  -->
<svg version="1.1" id="Layer_1" xmlns="http://www.w3.org/2000/svg" xmlns:xlink="http://www.w3.org/1999/xlink" x="0px" y="0px"
	 viewBox="0 0 200 200" style="enable-background:new 0 0 200 200;" xml:space="preserve">
<style type="text/css">
	.st0{fill:#FFFFFF;}
</style>
<path class="st0" d="M138.1,127.1c-25.5,0-29.7-16.1-32.6-26.9c-1.8-6.8-2.7-9.5-5.5-9.5c-2.7,0-3.7,2.7-5.5,9.5
	c-2.9,10.8-7.1,26.9-32.6,26.9c-29.5,0-30.6-14.8-31.5-24.7c-0.2-1.5-0.2-2.7-0.4-4c-1.1-6.8-3.5-8.2-3.8-8.4c-1.3-0.5-2-1.8-2-3.1
	v-8.4c0-1.8,1.3-3.3,3.1-3.5c2.9-0.4,13.9-2,32.1-2c10.6,0,19,1.8,26.6,3.3c5.3,1.1,9.9,2.2,14.1,2.2c4.2,0,8.8-0.9,14.1-2.2
	c7.5-1.6,15.9-3.3,26.6-3.3c18.3,0,29.1,1.5,32.1,2l0,0c1.8,0.4,3.1,1.8,3.1,3.5v8.4c0,1.3-0.7,2.6-2,3.1c-0.5,0.2-2.9,1.8-3.8,8.4
	c-0.2,1.1-0.4,2.6-0.4,4C168.7,112.3,167.6,127.1,138.1,127.1z M100,85.7c6.8,0,8.6,6.8,10.3,13.2c2.9,10.8,6.2,23.3,27.8,23.3
	c24.9,0,25.6-10.8,26.4-20.3c0.2-1.5,0.2-2.9,0.4-4.4c1.1-7.3,3.8-10.4,5.9-11.7v-6.4c-4-0.5-14.1-1.6-30.2-1.6
	c-10.1,0-18.3,1.6-25.5,3.3c-5.7,1.3-10.4,2.2-15,2.2s-9.5-1.1-15-2.2c-7.1-1.5-15.4-3.3-25.5-3.3c-16.1,0-26.2,1.1-30.2,1.6v6.4
	c2,1.3,4.8,4.4,5.9,11.7c0.2,1.3,0.4,2.7,0.4,4.4c0.7,9.5,1.5,20.3,26.4,20.3c21.6,0,24.9-12.3,27.8-23.3
	C91.4,92.5,93.2,85.7,100,85.7z M139.4,120.9c-26.9,0-27.3-27.3-27.3-27.5c0-1.3,0-4.6,2.9-7.5c4.4-4.4,13.2-6.6,27.1-6.6
	c19.4,0,20.1,11,20.7,16.8c0,0.4,0,0.9,0.2,1.3c0.7,7.5-0.9,13-4.6,17C154.4,118.7,148,120.9,139.4,120.9z M142.1,84.2
	c-15.4,0-21.2,2.7-23.6,5.1c-1.5,1.5-1.5,2.9-1.5,3.8c0,1.1,0.4,22.7,22.3,22.7c7.1,0,12.3-1.6,15.2-4.9c2.7-2.9,3.8-7.3,3.3-13.4
	c0-0.4,0-0.9-0.2-1.3C157.3,90.5,157,84.2,142.1,84.2z M60.6,120.9c-8.6,0-14.8-2.2-18.9-6.6c-3.7-4-5.1-9.7-4.6-17
	c0-0.4,0-0.7,0.2-1.3c0.4-5.9,1.3-16.8,20.7-16.8c13.9,0,22.7,2.2,27.1,6.6c2.9,2.9,2.9,6.2,2.9,7.3v0.2
	C87.9,93.6,87.5,120.9,60.6,120.9z M57.9,84.2c-14.8,0-15.2,6.2-15.8,12.1c0,0.4,0,0.9-0.2,1.3c-0.5,6,0.5,10.3,3.3,13.4
	c2.9,3.3,8.1,4.9,15.2,4.9c22,0,22.3-21.6,22.3-22.5v-0.2c0-0.9,0-2.4-1.5-3.8C79.1,87,73.3,84.2,57.9,84.2z M153.3,109.3
	c0.9-0.9,0.9-2.6,0-3.5l-14.5-14.5c-0.9-0.9-2.6-0.9-3.5,0c-0.9,0.9-0.9,2.6,0,3.5l14.5,14.5c0.5,0.5,1.1,0.7,1.8,0.7
	C152.4,110.1,152.7,109.9,153.3,109.3z M154.2,99.1c0.9-0.9,0.9-2.6,0-3.5l-8.2-8.2c-0.9-0.9-2.6-0.9-3.5,0c-0.9,0.9-0.9,2.6,0,3.5
	l8.2,8.2c0.5,0.5,1.1,0.7,1.8,0.7C153.3,99.8,153.7,99.6,154.2,99.1z M74,109.3c0.9-0.9,0.9-2.6,0-3.5L59.5,91.4
	c-0.9-0.9-2.6-0.9-3.5,0c-0.9,0.9-0.9,2.6,0,3.5l14.5,14.5c0.5,0.5,1.1,0.7,1.8,0.7C73.1,110.1,73.4,109.9,74,109.3z M74.9,99.1
	c0.9-0.9,0.9-2.6,0-3.5l-8.2-8.2c-0.9-0.9-2.6-0.9-3.5,0c-0.9,0.9-0.9,2.6,0,3.5l8.2,8.2c0.5,0.5,1.1,0.7,1.8,0.7
	S74.5,99.6,74.9,99.1z"/>
</svg>
