<?xml version="1.0" encoding="utf-8"?>
<!-- Generator: Adobe Illustrator 21.1.0, SVG Export Plug-In . SVG Version: 6.00 Build 0)  -->
<svg version="1.1" id="Layer_1" xmlns="http://www.w3.org/2000/svg" xmlns:xlink="http://www.w3.org/1999/xlink" x="0px" y="0px"
	 viewBox="0 0 131.1 133.8" style="enable-background:new 0 0 131.1 133.8;" xml:space="preserve">
<style type="text/css">
	.st0{fill-rule:evenodd;clip-rule:evenodd;fill:#00B5CC;}
	.st1{fill:#00B5CC;}
</style>
<g id="Color_Logo">
	<path class="st0" d="M56.5,8.9c0.7,0,1.5,0,2.2,0c0,6.9,0,13.8,0,20.6c12.6,0.1,25.5-0.1,38,0.1c-0.1,1,0.1,2.3-0.1,3.1
		c-4.3,0-8.5,0-12.8,0c6.9,19.4,14.2,39.3,21.3,58.8c4.9-13.2,9.5-26.8,14.5-39.9c0.2,1,0.6,2.1,0.9,3.2c0.3,1,0.8,2.4,0.7,3.4
		c-0.1,0.9-0.8,2.3-1.3,3.6c-6.3,17.9-12.8,36.4-19.1,53.8c-1.2,0-2.5,0-3.7,0c-10-27.7-20.1-55.2-30.1-82.9c-4.1,0-8.3,0-12.4,0
		c-1.6-11.1-6.9-18.5-16.7-21.4c2-0.7,4-1.3,6.1-1.8c2.7,1.2,5.3,2.6,7.4,4.5C53.4,12.4,54.9,10.5,56.5,8.9z"/>
	<path class="st0" d="M60.3,79.4c5.3,1.2,9.9,3.1,13.4,6.1c1.8-1.7,3.3-3.6,5.1-5.2c0.9,0,1.8,0,2.7,0c-0.1,8.1,0.1,16.4-0.1,24.3
		c-1.2,0-2.3,0-3.5,0c-2-11.7-7.9-19.4-19-22c-4.7,7.5-11.5,12.9-23.8,12.9c-3,7.6-2.6,19.1-2.3,29.4c-0.7,0.1-1.6-0.5-2.4-1
		c-5.5-2.9-10.8-6.7-14.9-11c1.8-8,5.3-14.1,9.6-19.6c-2.1-0.7-3.8-1.7-5.6-3c-0.1-0.1-1.5-1.3-1.6-1.3c-0.2,0-1.2,1-1.6,1.3
		c-1.1,1-1.8,1.7-2.9,2.7c-1,0.9-1.6,1.6-3.7,1.3c0-8.3,0-16.7,0-25c1.2,0,2.5,0,3.7,0c2.2,9.5,6.3,17.1,14.2,21
		c1.8-1.3,3.3-3,5.1-4.4c5.3-4.2,12.1-7.1,21.9-7c1.1-2.8,0.9-6.6-0.1-9.4c-1.6-4.8-6.3-7.5-11.2-9.4c-4.9-1.9-10.2-3.6-15.4-5.2
		c-9-2.8-15.3-8.7-17.1-19c-0.2-1.3-0.7-3.5-0.4-4.8c0.2-0.9,2.3-3,3.1-3.8c1.4-1.5,2.6-2.6,3.8-3.7c-0.7,8.2,4,11.3,10.4,13.1
		c3,0.8,6.1,1.6,8.8,2.5c2.9,1,5.9,1.7,8.6,2.7c8.3,3.1,14.2,8.6,16.3,17.6C62.9,66,62.5,73.8,60.3,79.4z M36.6,92.4
		c8.7-0.4,14.1-4.2,17.1-10.3C44.3,81.9,39.6,86.4,36.6,92.4z"/>
</g>
<g>
	<g>
		<path class="st1" d="M339.2,243c3.2,0,3.2-5,0-5C336,238,336,243,339.2,243L339.2,243z"/>
	</g>
</g>
<g>
	<g>
		<path class="st1" d="M17.6,44.4c3.2,0,3.2-5,0-5C14.4,39.4,14.3,44.4,17.6,44.4L17.6,44.4z"/>
	</g>
</g>
</svg>
