<?xml version="1.0" encoding="utf-8"?>
<!-- Generator: Adobe Illustrator 21.1.0, SVG Export Plug-In . SVG Version: 6.00 Build 0)  -->
<svg version="1.1" id="Layer_1" xmlns="http://www.w3.org/2000/svg" xmlns:xlink="http://www.w3.org/1999/xlink" x="0px" y="0px"
	 viewBox="0 0 200 200" style="enable-background:new 0 0 200 200;" xml:space="preserve">
<style type="text/css">
	.st0{fill:#FFFFFF;}
</style>
<path class="st0" d="M155.5,61.2c-8.3-13.8-21-23.6-36.3-27.9l1.3-5.3c0.4-1.3-0.5-2.7-1.8-2.9c-1.3-0.4-2.7,0.5-2.9,1.8l-1.3,5.3
	c-15.4-3.3-31.4-0.5-45,7.6C55.3,48.3,45.1,61.9,41.1,78v0.2c-0.2,0.9,0.2,2,0.9,2.5c0.7,0.5,1.8,0.7,2.7,0.2c6-3.1,13.1-4,19.6-2.2
	c6.5,1.6,12.3,5.6,16.1,11.2l0,0c0.2,0.2,0.4,0.4,0.5,0.5c0,0,0,0,0.2,0c0.2,0.2,0.4,0.2,0.7,0.4h0.2h0.2c0.2,0,0.2,0,0.4,0
	c0,0,0,0,0.2,0c0.2,0,0.4,0,0.4,0c0.2,0,0.4,0,0.4-0.2c0,0,0,0,0.2,0C89,88,95.2,87.1,101,88l0,0l-17.6,70.2c-0.2,0-0.4,0-0.5,0
	c-16.9,0-32.8,4.2-46,12.1c-1.1,0.7-1.5,2.2-0.9,3.4c0.7,1.1,2.2,1.5,3.4,0.9c12.3-7.4,27.7-11.4,43.5-11.4s31.2,4,43.5,11.4
	c0.4,0.2,0.9,0.4,1.3,0.4c0.9,0,1.6-0.4,2.2-1.3c0.7-1.1,0.4-2.7-0.9-3.4c-11.8-7.1-25.7-11.2-40.4-12l16.9-69.1l0,0
	c5.6,2,10.5,5.6,13.8,10.5l0,0c0.2,0.2,0.4,0.4,0.5,0.5l0,0c0.2,0.2,0.4,0.2,0.5,0.2c0,0,0,0,0.2,0c0.2,0,0.4,0,0.4,0
	c0.2,0,0.2,0,0.4,0h0.2c0.2,0,0.2,0,0.4,0s0.4,0,0.5-0.2h0.2c6-3.1,13.1-4,19.6-2.2c6.5,1.6,12.3,5.6,16.1,11.2
	c0.5,0.7,1.3,1.1,2,1.1c0.2,0,0.4,0,0.4,0c0.9-0.2,1.6-0.9,2-1.8v-0.2C166.6,92.2,164,75.5,155.5,61.2z M65.2,74
	c-6-1.5-12.3-1.3-18.1,0.5c4.4-12.9,13.1-23.7,24.8-30.8c11.2-6.7,24.3-9.4,37.2-7.8c-9.2,6.3-17,16.3-22.7,29.5
	c-2.9,6.9-4.5,13.2-5.6,17.4C76.7,78.7,71.2,75.5,65.2,74z M104.2,83.8c-6.2-1.5-12.7-1.3-18.7,0.7c2.4-10.3,9.8-36.1,29.7-46.4h0.2
	h0.2c12.7,18.5,7.3,44.8,4.5,54.9C115.8,88.5,110.4,85.3,104.2,83.8z M158.8,102.5c-4.2-4.4-9.6-7.6-15.6-9.1
	c-2.5-0.7-5.3-0.9-8-0.9c-3.4,0-6.7,0.5-10,1.6c1.1-4.2,2.5-10.5,3.3-17.9c1.3-14.3-0.9-26.8-6.2-36.8c12.1,4.5,22.3,13.1,29,24.3
	C158.4,75.5,161,89.1,158.8,102.5z"/>
</svg>
