<?xml version="1.0" encoding="utf-8"?>
<!-- Generator: Adobe Illustrator 21.1.0, SVG Export Plug-In . SVG Version: 6.00 Build 0)  -->
<svg version="1.1" id="Layer_1" xmlns="http://www.w3.org/2000/svg" xmlns:xlink="http://www.w3.org/1999/xlink" x="0px" y="0px"
	 viewBox="0 0 1430.1 43.9" style="enable-background:new 0 0 1430.1 43.9;" xml:space="preserve">
<style type="text/css">
	.st0{fill:#FFFA48;}
</style>
<g>
	<g>
		<polygon class="st0" points="0,43.9 44.2,0 88.1,43.9 133.7,0 177.6,43.9 223.1,0 267,43.9 312.6,0 356.5,43.9 402.1,0 
			445.9,43.9 491.5,0 535.4,43.9 581,0 624.9,43.9 670.5,0 714.3,43.9 759.9,0 803.8,43.9 849.4,0 893.3,43.9 938.8,0 982.7,43.9 
			1028.3,0 1072.2,43.9 1117.8,0 1161.7,43.9 1207.2,0 1251.1,43.9 1296.7,0 1340.6,43.9 1386.2,0 1430.1,43.9 		"/>
	</g>
</g>
</svg>
